<?xml version="1.0" encoding="utf-8"?>
<!-- Generator: Adobe Illustrator 12.0.0, SVG Export Plug-In . SVG Version: 6.00 Build 51448)  -->
<!DOCTYPE svg PUBLIC "-//W3C//DTD SVG 1.1//EN" "http://www.w3.org/Graphics/SVG/1.1/DTD/svg11.dtd" [
	<!ENTITY ns_svg "http://www.w3.org/2000/svg">
	<!ENTITY ns_xlink "http://www.w3.org/1999/xlink">
]>
<svg  version="1.1" xmlns="&ns_svg;" xmlns:xlink="&ns_xlink;" width="462.812" height="498.7" viewBox="0 0 462.812 498.7"
	 overflow="visible" enable-background="new 0 0 462.812 498.7" xml:space="preserve">
<g id="Layer_1">
	<path stroke="#000000" d="M337.503,253.585c38.854,97.773-60.218,190.5-134.5,190.5s-154.827-87.272-134.5-190.5
		c25.5-129.5,78.531-188.394,134.5-190.5C296.003,59.585,295.773,148.571,337.503,253.585z"/>
	<path stroke="#000000" d="M142.837,420.752c-14.214,38.317-26.833,72.999-27.833,74.667c-8.949,14.918-31.5-33.131-31.5-74
		s14.103-74,31.5-74S158.17,379.419,142.837,420.752z"/>
	<path stroke="#000000" d="M52.374,223.746c-27.705,30.045,17.909,89.41,16.039,88.877C29.686,301.594,4.588,249.283,0.696,208.6
		c-3.893-40.684,51.286-51.284,68.618-52.777C139.557,149.771,81.497,192.161,52.374,223.746z"/>
	<path stroke="#000000" d="M355.787,223.746c27.705,30.045-17.908,89.41-16.039,88.877c38.727-11.029,63.824-63.34,67.717-104.023
		c3.893-40.684-51.285-51.284-68.618-52.777C268.603,149.771,326.664,192.161,355.787,223.746z"/>
	<path stroke="#000000" d="M270.185,420.752c14.215,38.317,26.834,72.999,27.834,74.667c8.949,14.918,31.5-33.131,31.5-74
		s-14.104-74-31.5-74S254.853,379.419,270.185,420.752z"/>
	
		<ellipse transform="matrix(0.9847 0.1745 -0.1745 0.9847 28.7633 -25.5822)" fill="#FFFFFF" stroke="#000000" cx="159.837" cy="150.751" rx="18.334" ry="42.667"/>
	
		<ellipse transform="matrix(0.9926 -0.1218 0.1218 0.9926 -16.9345 29.7384)" fill="#FFFFFF" stroke="#000000" cx="234.836" cy="153.418" rx="18.333" ry="42.667"/>
</g>
<g id="hat">
	<g>
		<g>
			<polygon points="296.287,68.752 251.329,37.548 198.112,0.613 145.698,38.675 104.278,68.752 71.17,68.752 75.837,92.752 
				323.17,94.085 334.503,68.752 			"/>
		</g>
		<g>
			<polygon fill="none" stroke="#FFFFFF" points="296.287,68.752 251.329,37.548 198.112,0.613 145.698,38.675 104.278,68.752 
				71.17,68.752 75.837,92.752 323.17,94.085 334.503,68.752 			"/>
		</g>
	</g>
	<line stroke="#000000" stroke-width="2" x1="333.503" y1="122.085" x2="387.003" y2="68.585"/>
	<g>
		<path d="M406.302,64.459v5.208H402.9v-5.25l-5.69-9.45h3.612l3.927,6.531l3.927-6.531h3.339L406.302,64.459z"/>
		<path d="M422.22,66.517h-6.824l-1.303,3.15h-3.486l6.553-14.7h3.359l6.573,14.7h-3.569L422.22,66.517z M421.15,63.934
			l-2.332-5.628l-2.33,5.628H421.15z"/>
		<path d="M437.992,69.667l-2.836-4.095h-0.168h-2.961v4.095h-3.401v-14.7h6.362c1.303,0,2.434,0.217,3.393,0.651
			s1.697,1.05,2.215,1.848s0.777,1.743,0.777,2.835s-0.263,2.033-0.788,2.824c-0.524,0.791-1.271,1.396-2.236,1.816l3.297,4.725
			H437.992z M437.13,58.401c-0.532-0.441-1.309-0.662-2.331-0.662h-2.772v5.124h2.772c1.022,0,1.799-0.224,2.331-0.672
			c0.531-0.448,0.798-1.078,0.798-1.89C437.928,59.475,437.662,58.841,437.13,58.401z"/>
		<path d="M453.425,69.667l-2.834-4.095h-0.168h-2.961v4.095h-3.402v-14.7h6.363c1.302,0,2.432,0.217,3.391,0.651
			s1.697,1.05,2.216,1.848s0.777,1.743,0.777,2.835s-0.263,2.033-0.788,2.824c-0.524,0.791-1.271,1.396-2.236,1.816l3.297,4.725
			H453.425z M452.565,58.401c-0.532-0.441-1.31-0.662-2.331-0.662h-2.771v5.124h2.771c1.021,0,1.799-0.224,2.331-0.672
			c0.532-0.448,0.798-1.078,0.798-1.89C453.363,59.475,453.097,58.841,452.565,58.401z"/>
		<path d="M459.358,69.279c-0.385-0.371-0.577-0.823-0.577-1.354c0-0.532,0.188-0.977,0.566-1.334
			c0.378-0.356,0.861-0.535,1.449-0.535s1.071,0.179,1.449,0.535c0.378,0.357,0.566,0.802,0.566,1.334
			c0,0.532-0.192,0.983-0.577,1.354s-0.864,0.556-1.438,0.556S459.743,69.65,459.358,69.279z M458.843,54.967h3.906l-0.651,9.597
			h-2.604L458.843,54.967z"/>
	</g>
</g>
</svg>
