<?xml version="1.0" encoding="utf-8"?>
<!-- Generator: Adobe Illustrator 12.0.0, SVG Export Plug-In . SVG Version: 6.00 Build 51448)  -->
<!DOCTYPE svg PUBLIC "-//W3C//DTD SVG 1.1//EN" "http://www.w3.org/Graphics/SVG/1.1/DTD/svg11.dtd" [
	<!ENTITY ns_svg "http://www.w3.org/2000/svg">
	<!ENTITY ns_xlink "http://www.w3.org/1999/xlink">
]>
<svg  version="1.1" xmlns="&ns_svg;" xmlns:xlink="&ns_xlink;" width="589.449" height="187" viewBox="0 0 589.449 187"
	 overflow="visible" enable-background="new 0 0 589.449 187" xml:space="preserve">
<g id="Layer_1">
	<rect x="2" y="2" fill="#9E6730" stroke="#442D17" stroke-width="4" width="585.449" height="183"/>
</g>
<g id="text_x2F_lines">
	<path fill-rule="evenodd" clip-rule="evenodd" d="M65.634,3.437c-12.654,1.79-30.655,1-48,1c-3.964,0-15.387,0.613-16,0
		c0.967,0.967,27.373-1,32-1C47.177,3.437,54.983,3.437,65.634,3.437z"/>
	<path fill-rule="evenodd" clip-rule="evenodd" d="M299.634,3.437c-3.361-2.176-34.068,5.932-39,1c1.589,1.589,15.305-1,19-1
		C287.653,3.437,293.461,3.437,299.634,3.437z"/>
	<path fill-rule="evenodd" clip-rule="evenodd" d="M319.634,4.437c6.011-2.323,16.325-0.341,24-1c8.333,0,16.667,0,25,0
		c24.313,0.528,49.836-0.7,75,0c25.063,0.697,56.877,1.074,74,1C453.38,6.491,386.334,3.216,319.634,4.437z"/>
	<path fill-rule="evenodd" clip-rule="evenodd" d="M550.634,3.437c-6.89-0.764-21.264,4.736-25,1
		C527.669,6.472,545.939,0.865,550.634,3.437z"/>
	<path fill-rule="evenodd" clip-rule="evenodd" d="M563.634,4.437c5.678-2.322,15.658-0.342,23-1
		C580.957,5.758,570.976,3.778,563.634,4.437z"/>
	<path fill-rule="evenodd" clip-rule="evenodd" d="M183.634,9.437c32.322-4.097,71.24-0.766,105,0
		C252.504,10.349,218.287,7.047,183.634,9.437z"/>
	<path fill-rule="evenodd" clip-rule="evenodd" d="M17.634,8.437c-7.645,2.412-24.36,0.218-8,0
		C12.738,8.395,14.851,8.467,17.634,8.437z"/>
	<path fill-rule="evenodd" clip-rule="evenodd" d="M317.634,8.437c-8.782,2.409-28.089,0.238-10,0
		C310.993,8.393,314.674,8.47,317.634,8.437z"/>
	<path fill-rule="evenodd" clip-rule="evenodd" d="M481.634,10.437c-6.502-0.563-19.517,4.483-23,1
		C460.341,13.144,477.259,8.116,481.634,10.437z"/>
	<path fill-rule="evenodd" clip-rule="evenodd" d="M495.634,10.437C486.069,13.387,482.287,9.279,495.634,10.437L495.634,10.437z"/>
	<path fill-rule="evenodd" clip-rule="evenodd" d="M260.634,14.437c-17.505-0.164-44.975,0.978-64-1
		C217.871,13.866,240.971,12.433,260.634,14.437z"/>
	<path fill-rule="evenodd" clip-rule="evenodd" d="M14.634,14.437c4.333,0,8.667,0,13,0c-4.234,1.524-14.969,1.345-20,1
		C-2.414,14.747,5.456,14.294,14.634,14.437z"/>
	<path fill-rule="evenodd" clip-rule="evenodd" d="M180.634,15.437c2.367-2.3,8.975-0.358,13-1
		C191.268,16.736,184.659,14.795,180.634,15.437z"/>
	<path fill-rule="evenodd" clip-rule="evenodd" d="M574.634,15.437c2.366-2.3,8.976-0.358,13-1
		C585.268,16.736,578.659,14.795,574.634,15.437z"/>
	<path fill-rule="evenodd" clip-rule="evenodd" d="M288.634,20.437c1.727-2.954,29.919,2.542,6,0
		C292.718,20.233,290.829,20.58,288.634,20.437z"/>
	<path fill-rule="evenodd" clip-rule="evenodd" d="M326.634,20.437C315.531,23.495,313.263,19.208,326.634,20.437L326.634,20.437z"
		/>
	<path fill-rule="evenodd" clip-rule="evenodd" d="M55.634,22.437c-6.797,2.398-21.363,0.232-7,0
		C51.272,22.394,53.29,22.469,55.634,22.437z"/>
	<path fill-rule="evenodd" clip-rule="evenodd" d="M528.634,22.437c-6.89-0.764-21.264,4.736-25,1
		C505.669,25.472,523.939,19.865,528.634,22.437z"/>
	<path fill-rule="evenodd" clip-rule="evenodd" d="M330.634,27.437c5.678-2.322,15.658-0.342,23-1
		C347.957,28.759,337.976,26.778,330.634,27.437z"/>
	<path fill-rule="evenodd" clip-rule="evenodd" d="M354.634,27.437c2.038-2.295,8.305-0.362,12-1
		C364.596,28.731,358.33,26.799,354.634,27.437z"/>
	<path fill-rule="evenodd" clip-rule="evenodd" d="M558.634,27.437c7.674-2.326,19.661-0.339,29-1
		C579.96,28.763,567.973,26.775,558.634,27.437z"/>
	<path fill-rule="evenodd" clip-rule="evenodd" d="M416.634,28.437c7.009-2.325,18.327-0.34,27-1c9.333,0,18.667,0,28,0
		c18.333,0,36.667,0,55,0C491.967,29.77,452.968,27.771,416.634,28.437z"/>
	<path fill-rule="evenodd" clip-rule="evenodd" d="M538.634,28.437c1.387-2.28,6.961-0.373,10-1
		C547.248,29.717,541.673,27.81,538.634,28.437z"/>
	<path fill-rule="evenodd" clip-rule="evenodd" d="M573.634,31.437c4.667,0,9.333,0,14,0c-4.263,1.522-13.954,1.344-20,1
		C557.454,31.857,562.743,31.35,573.634,31.437z"/>
	<path fill-rule="evenodd" clip-rule="evenodd" d="M516.634,32.437c-2.295-1.008-25.543,4.457-29,1
		C490.231,36.033,511.243,29.443,516.634,32.437z"/>
	<path fill-rule="evenodd" clip-rule="evenodd" d="M550.634,32.437c-9.553,2.421-29.63,0.186-10,0
		C544.198,32.402,547.709,32.463,550.634,32.437z"/>
	<path fill-rule="evenodd" clip-rule="evenodd" d="M338.634,38.437c3.356-2.311,10.983-0.351,16-1c5.667,0,11.333,0,17,0
		C362.628,39.764,349.305,37.774,338.634,38.437z"/>
	<path fill-rule="evenodd" clip-rule="evenodd" d="M380.634,38.437c4.35-2.316,12.987-0.346,19-1
		C395.285,39.753,386.647,37.782,380.634,38.437z"/>
	<path fill-rule="evenodd" clip-rule="evenodd" d="M465.634,37.437c-7.653,1.776-16.599,1-28,1c-6.681,0-25.767,3.233-29,0
		c0.723,0.723,23.972-1,28-1C448.41,37.437,456.25,37.437,465.634,37.437z"/>
	<path fill-rule="evenodd" clip-rule="evenodd" d="M586.634,37.437c-23.821,1.802-53.967,1-83,1c-5.976,0-26.302,1.698-28,0
		c1.096,1.096,22.629-1,27-1C530.356,37.437,560.162,37.437,586.634,37.437z"/>
	<path fill-rule="evenodd" clip-rule="evenodd" d="M311.634,43.437c26.689-0.649,61.398,0,95,0c10.294,0,25.362-2.533,33,0
		c-5.858-1.943-20.3,1-30,1C377.222,44.437,343.216,44.752,311.634,43.437z"/>
	<path fill-rule="evenodd" clip-rule="evenodd" d="M450.634,43.437c6.343-2.323,16.992-0.341,25-1
		C469.292,44.76,458.642,42.777,450.634,43.437z"/>
	<path fill-rule="evenodd" clip-rule="evenodd" d="M504.634,42.437c10.313-2.698,29.021,3.283,34,2c-12.523,3.228-33.139-4.307-51-1
		C487.524,41.293,499.805,42.965,504.634,42.437z"/>
	<path fill-rule="evenodd" clip-rule="evenodd" d="M543.634,44.437c5.014-2.319,14.323-0.344,21-1c7.333,0,14.667,0,22,0
		C574.297,45.767,557.637,43.772,543.634,44.437z"/>
	<path fill-rule="evenodd" clip-rule="evenodd" d="M84.634,44.437c-3.016-1.913-32.406,5.594-37,1c1.507,1.507,14.386-1,18-1
		C73.233,44.437,78.817,44.437,84.634,44.437z"/>
	<path fill-rule="evenodd" clip-rule="evenodd" d="M221.634,45.437c4.018-2.315,12.32-0.347,18-1
		C235.616,46.752,227.314,44.783,221.634,45.437z"/>
	<path fill-rule="evenodd" clip-rule="evenodd" d="M123.634,46.437c-6.889-0.764-21.264,4.736-25,1
		C100.67,49.472,118.939,43.865,123.634,46.437z"/>
	<path fill-rule="evenodd" clip-rule="evenodd" d="M15.634,49.437c6.343-2.323,16.993-0.341,25-1
		C34.291,50.76,23.642,48.777,15.634,49.437z"/>
	<path fill-rule="evenodd" clip-rule="evenodd" d="M327.634,49.437c2.038-2.295,8.305-0.362,12-1
		C337.596,50.731,331.33,48.799,327.634,49.437z"/>
	<path fill-rule="evenodd" clip-rule="evenodd" d="M364.634,49.437c8,0,16,0,24,0c-8.306,1.617-25.007,1.211-35,1
		c-4.827-0.102-16.587-0.195-7-1C350.166,49.14,357.405,49.646,364.634,49.437z"/>
	<path fill-rule="evenodd" clip-rule="evenodd" d="M566.634,50.437c5.014-2.319,14.323-0.344,21-1
		C582.621,51.756,573.311,49.78,566.634,50.437z"/>
	<path fill-rule="evenodd" clip-rule="evenodd" d="M65.634,53.437c-7.645,2.412-24.36,0.218-8,0
		C60.738,53.396,62.851,53.468,65.634,53.437z"/>
	<path fill-rule="evenodd" clip-rule="evenodd" d="M424.634,54.437c0.574,1.292-7.823,2.139-12,2
		C415.763,54.898,420.026,54.495,424.634,54.437z"/>
	<path fill-rule="evenodd" clip-rule="evenodd" d="M373.634,56.437c4.019-2.315,12.319-0.347,18-1
		C387.616,57.752,379.315,55.783,373.634,56.437z"/>
	<path fill-rule="evenodd" clip-rule="evenodd" d="M456.634,57.437C444.172,60.5,442.062,56.268,456.634,57.437L456.634,57.437z"/>
	<path fill-rule="evenodd" clip-rule="evenodd" d="M562.634,61.437c5.346-2.321,14.99-0.343,22-1
		C579.289,62.758,569.644,60.779,562.634,61.437z"/>
	<path fill-rule="evenodd" clip-rule="evenodd" d="M446.634,64.437c6.011-2.322,16.325-0.341,24-1
		C464.624,65.759,454.309,63.777,446.634,64.437z"/>
	<path fill-rule="evenodd" clip-rule="evenodd" d="M161.634,66.437c-11.183,4.852-28.524,0.335-42,1
		C127.996,64.593,149.24,69.829,161.634,66.437z"/>
	<path fill-rule="evenodd" clip-rule="evenodd" d="M371.634,68.437c-29.51-3.371-61.896,2.195-91-1
		C310.681,68.726,347.659,63.533,371.634,68.437z"/>
	<path fill-rule="evenodd" clip-rule="evenodd" d="M566.634,67.437c5.014-2.319,14.323-0.344,21-1
		C582.621,68.756,573.311,66.78,566.634,67.437z"/>
	<path fill-rule="evenodd" clip-rule="evenodd" d="M208.634,71.437c-8.756,2.408-26.63,0.197-9,0
		C202.978,71.399,205.567,71.465,208.634,71.437z"/>
	<path fill-rule="evenodd" clip-rule="evenodd" d="M225.634,73.437c2.039-2.295,8.305-0.362,12-1
		C235.596,74.731,229.33,72.799,225.634,73.437z"/>
	<path fill-rule="evenodd" clip-rule="evenodd" d="M68.634,76.437c4.018-2.315,12.32-0.347,18-1
		C82.616,77.752,74.314,75.783,68.634,76.437z"/>
	<path fill-rule="evenodd" clip-rule="evenodd" d="M8.634,79.437c1.386-2.28,6.96-0.373,10-1
		C17.248,80.717,11.674,78.81,8.634,79.437z"/>
	<path fill-rule="evenodd" clip-rule="evenodd" d="M62.634,83.437c4.018-2.315,12.32-0.347,18-1
		C76.616,84.752,68.314,82.783,62.634,83.437z"/>
	<path fill-rule="evenodd" clip-rule="evenodd" d="M82.634,83.437c4.682-2.318,13.655-0.345,20-1
		C97.953,84.755,88.979,82.781,82.634,83.437z"/>
	<path fill-rule="evenodd" clip-rule="evenodd" d="M6.634,84.437c5.014-2.319,14.323-0.344,21-1c7.333,0,14.667,0,22,0
		C37.297,85.767,20.637,83.772,6.634,84.437z"/>
	<path fill-rule="evenodd" clip-rule="evenodd" d="M178.634,83.437c-1.406,3.927-9.483,1.184-14,2
		C160.212,83.269,176.501,85.604,178.634,83.437z"/>
	<path fill-rule="evenodd" clip-rule="evenodd" d="M211.634,85.437c-3.941-4.22-25.638,3.362-30-1
		C183.076,85.879,211.282,80.539,211.634,85.437z"/>
	<path fill-rule="evenodd" clip-rule="evenodd" d="M341.634,85.437c5.169-3.153,17.286-2.282,6-1
		C345.563,84.672,345.207,85.801,341.634,85.437z"/>
	<path fill-rule="evenodd" clip-rule="evenodd" d="M583.634,83.437c-6.502-0.563-19.517,4.483-23,1
		C562.341,86.144,579.259,81.115,583.634,83.437z"/>
	<path fill-rule="evenodd" clip-rule="evenodd" d="M128.634,85.437c3.356-2.311,10.983-0.351,16-1c5.667,0,11.333,0,17,0
		C152.628,86.764,139.305,84.774,128.634,85.437z"/>
	<path fill-rule="evenodd" clip-rule="evenodd" d="M395.634,85.437c5.014-2.319,14.323-0.344,21-1
		C411.621,86.756,402.311,84.78,395.634,85.437z"/>
	<path fill-rule="evenodd" clip-rule="evenodd" d="M64.634,89.437c2.367-2.3,8.975-0.358,13-1c4.333,0,8.667,0,13,0
		C83.958,90.761,72.975,88.776,64.634,89.437z"/>
	<path fill-rule="evenodd" clip-rule="evenodd" d="M556.634,90.437c6.343-2.323,16.992-0.341,25-1
		C575.292,91.76,564.642,89.777,556.634,90.437z"/>
	<path fill-rule="evenodd" clip-rule="evenodd" d="M2.634,96.437c5.678-2.322,15.658-0.342,23-1
		C19.956,97.759,9.976,95.778,2.634,96.437z"/>
	<path fill-rule="evenodd" clip-rule="evenodd" d="M37.634,96.437c3.687-2.313,11.651-0.349,17-1
		C50.947,97.75,42.983,95.785,37.634,96.437z"/>
	<path fill-rule="evenodd" clip-rule="evenodd" d="M489.634,100.437c6.343-2.323,16.992-0.341,25-1
		C508.292,101.76,497.642,99.777,489.634,100.437z"/>
	<path fill-rule="evenodd" clip-rule="evenodd" d="M386.634,101.437c2.688,0.845-7.188,1.773-12,2c-5.591,0.263-12.094,0.576-15-1
		C369.741,103.209,376.97,101.105,386.634,101.437z"/>
	<path fill-rule="evenodd" clip-rule="evenodd" d="M400.634,102.437c3.687-2.313,11.651-0.349,17-1c6,0,12,0,18,0
		C425.962,103.765,411.971,101.773,400.634,102.437z"/>
	<path fill-rule="evenodd" clip-rule="evenodd" d="M550.634,102.437c4.019-2.315,12.319-0.347,18-1c6.333,0,12.667,0,19,0
		C577.296,103.766,562.638,101.773,550.634,102.437z"/>
	<path fill-rule="evenodd" clip-rule="evenodd" d="M1.634,107.437c6.343-2.323,16.993-0.341,25-1
		C20.291,108.76,9.642,106.777,1.634,107.437z"/>
	<path fill-rule="evenodd" clip-rule="evenodd" d="M236.634,110.437c2.696-2.305,9.645-0.355,14-1c4.667,0,9.333,0,14,0
		C257.293,111.762,245.64,109.775,236.634,110.437z"/>
	<path fill-rule="evenodd" clip-rule="evenodd" d="M522.634,113.437c5.678-2.322,15.658-0.342,23-1c7.667,0,15.333,0,23,0
		C555.298,114.767,537.636,112.772,522.634,113.437z"/>
	<path fill-rule="evenodd" clip-rule="evenodd" d="M569.634,113.437c3.687-2.313,11.651-0.349,17-1
		C582.948,114.75,574.983,112.785,569.634,113.437z"/>
	<path fill-rule="evenodd" clip-rule="evenodd" d="M244.634,115.437c4.682-2.318,13.655-0.345,20-1c6.667,0,13.333,0,20,0
		C273.297,116.766,257.637,114.772,244.634,115.437z"/>
	<path fill-rule="evenodd" clip-rule="evenodd" d="M1.634,119.437c4.682-2.318,13.655-0.345,20-1
		C16.953,120.755,7.979,118.781,1.634,119.437z"/>
	<path fill-rule="evenodd" clip-rule="evenodd" d="M210.634,119.437c4.774-2.299,22.606-0.711,30,1
		C230.012,120.726,221.735,118.67,210.634,119.437z"/>
	<path fill-rule="evenodd" clip-rule="evenodd" d="M520.634,119.437c3.356-2.311,10.983-0.351,16-1c5.667,0,11.333,0,17,0
		c11,0,22,0,33,0C566.632,120.769,542.302,118.771,520.634,119.437z"/>
	<path fill-rule="evenodd" clip-rule="evenodd" d="M246.634,120.437c7.674-2.326,19.661-0.339,29-1
		C267.96,121.763,255.973,119.775,246.634,120.437z"/>
	<path fill-rule="evenodd" clip-rule="evenodd" d="M326.634,120.437c6.343-2.323,16.992-0.341,25-1
		C345.292,121.76,334.642,119.777,326.634,120.437z"/>
	<path fill-rule="evenodd" clip-rule="evenodd" d="M356.634,120.437c4.682-2.318,13.655-0.345,20-1
		C371.953,121.755,362.979,119.781,356.634,120.437z"/>
	<path fill-rule="evenodd" clip-rule="evenodd" d="M377.634,120.437c4.019-2.315,12.319-0.347,18-1
		C391.616,121.752,383.315,119.783,377.634,120.437z"/>
	<path fill-rule="evenodd" clip-rule="evenodd" d="M281.634,121.437c4.682-2.318,13.655-0.345,20-1
		C296.953,122.755,287.979,120.781,281.634,121.437z"/>
	<path fill-rule="evenodd" clip-rule="evenodd" d="M305.634,121.437c2.039-2.295,8.305-0.362,12-1
		C315.595,122.731,309.33,120.799,305.634,121.437z"/>
	<path fill-rule="evenodd" clip-rule="evenodd" d="M314.634,125.437c3.687-2.313,11.651-0.349,17-1c5.667,0,11.333,0,17,0
		C339.295,126.765,325.638,124.774,314.634,125.437z"/>
	<path fill-rule="evenodd" clip-rule="evenodd" d="M372.634,125.437c15.002-2.331,34.331-0.335,51-1
		C408.631,126.768,389.303,124.771,372.634,125.437z"/>
	<path fill-rule="evenodd" clip-rule="evenodd" d="M495.634,126.437c16.664-4.338,49.762-0.903,73-2
		C550.489,127.293,517.158,123.625,495.634,126.437z"/>
	<path fill-rule="evenodd" clip-rule="evenodd" d="M269.634,129.437c7.674-2.326,19.661-0.339,29-1c9.667,0,19.333,0,29,0
		C310.299,130.768,288.636,128.771,269.634,129.437z"/>
	<path fill-rule="evenodd" clip-rule="evenodd" d="M1.634,131.437c2.039-2.295,8.305-0.362,12-1
		C11.596,132.731,5.33,130.799,1.634,131.437z"/>
	<path fill-rule="evenodd" clip-rule="evenodd" d="M431.634,130.437C422.069,133.387,418.287,129.279,431.634,130.437
		L431.634,130.437z"/>
	<path fill-rule="evenodd" clip-rule="evenodd" d="M528.634,131.437c3.025-2.308,10.314-0.353,15-1c5.333,0,10.667,0,16,0
		C551.294,132.764,538.639,130.774,528.634,131.437z"/>
	<path fill-rule="evenodd" clip-rule="evenodd" d="M93.634,138.437c6.343-2.323,16.993-0.341,25-1c8.667,0,17.333,0,26,0
		C129.632,139.768,110.303,137.771,93.634,138.437z"/>
	<path fill-rule="evenodd" clip-rule="evenodd" d="M308.634,141.437c8.673-2.327,21.662-0.338,32-1
		C331.961,142.764,318.972,140.774,308.634,141.437z"/>
	<path fill-rule="evenodd" clip-rule="evenodd" d="M341.634,141.437c4.682-2.318,13.655-0.345,20-1c7,0,14,0,21,0
		C370.963,142.767,354.97,140.772,341.634,141.437z"/>
	<path fill-rule="evenodd" clip-rule="evenodd" d="M425.634,141.437c4.686,0.647,11.975-1.308,15,1c-12.587,0.252-23.072-1-38-1
		c-2.722,0-15.353,0.647-16,0C388.882,143.685,422.45,136.753,425.634,141.437z"/>
	<path fill-rule="evenodd" clip-rule="evenodd" d="M487.634,142.437c6.343-2.323,16.992-0.341,25-1c8.333,0,16.667,0,25,0
		c16.667,0,33.333,0,50,0C556.3,143.77,520.634,141.771,487.634,142.437z"/>
	<path fill-rule="evenodd" clip-rule="evenodd" d="M1.634,148.437c5.014-2.319,14.323-0.344,21-1
		C17.621,149.756,8.311,147.78,1.634,148.437z"/>
	<path fill-rule="evenodd" clip-rule="evenodd" d="M555.634,147.437c5.667,0,11.333,0,17,0c-5.367,1.531-18.412,1.313-25,1
		C534.737,147.825,544.354,147.27,555.634,147.437z"/>
	<path fill-rule="evenodd" clip-rule="evenodd" d="M574.634,148.437c2.038-2.295,8.305-0.362,12-1
		C584.596,149.731,578.33,147.799,574.634,148.437z"/>
	<path fill-rule="evenodd" clip-rule="evenodd" d="M97.634,151.437c1.386-2.28,6.96-0.373,10-1
		C106.248,152.717,100.674,150.81,97.634,151.437z"/>
	<path fill-rule="evenodd" clip-rule="evenodd" d="M108.634,151.437c2.696-2.305,9.645-0.355,14-1c4.667,0,9.333,0,14,0
		C129.293,152.762,117.64,150.775,108.634,151.437z"/>
	<path fill-rule="evenodd" clip-rule="evenodd" d="M277.634,152.437c2.696-2.305,9.645-0.355,14-1
		C288.938,153.741,281.989,151.792,277.634,152.437z"/>
	<path fill-rule="evenodd" clip-rule="evenodd" d="M369.634,151.437c-16.231,1.773-46.668,3.327-67,1
		C325.923,153.059,347.159,151.627,369.634,151.437z"/>
	<path fill-rule="evenodd" clip-rule="evenodd" d="M387.634,151.437c-6.612,2.369-23.032,0.301-8,0
		C382.277,151.384,385.078,151.477,387.634,151.437z"/>
	<path fill-rule="evenodd" clip-rule="evenodd" d="M7.634,154.437c3.356-2.311,10.983-0.351,16-1
		C20.278,155.747,12.651,153.787,7.634,154.437z"/>
	<path fill-rule="evenodd" clip-rule="evenodd" d="M27.634,154.437c3.356-2.311,10.983-0.351,16-1
		C40.278,155.747,32.651,153.787,27.634,154.437z"/>
	<path fill-rule="evenodd" clip-rule="evenodd" d="M521.634,154.437c3.356-2.311,10.983-0.351,16-1c5.333,0,10.667,0,16,0
		c11,0,22,0,33,0C566.966,155.769,542.968,153.771,521.634,154.437z"/>
	<path fill-rule="evenodd" clip-rule="evenodd" d="M49.634,155.437c3.356-2.311,10.983-0.351,16-1
		C62.278,156.747,54.651,154.787,49.634,155.437z"/>
	<path fill-rule="evenodd" clip-rule="evenodd" d="M285.634,159.437c-7.988,3.228-29.522-5.478-33-2
		C256.856,153.214,280.373,160.437,285.634,159.437z"/>
	<path fill-rule="evenodd" clip-rule="evenodd" d="M14.634,159.437c5.346-2.321,14.991-0.343,22-1
		C31.289,160.758,21.644,158.779,14.634,159.437z"/>
	<path fill-rule="evenodd" clip-rule="evenodd" d="M291.634,159.437c3.687-2.313,11.651-0.349,17-1c6,0,12,0,18,0
		c11.667,0,23.333,0,35,0c23.333,0,46.667,0,70,0C386.967,160.77,337.968,158.771,291.634,159.437z"/>
	<path fill-rule="evenodd" clip-rule="evenodd" d="M432.634,159.437c8.34-2.327,20.995-0.338,31-1c10.667,0,21.333,0,32,0
		C476.632,160.769,453.302,158.771,432.634,159.437z"/>
	<path fill-rule="evenodd" clip-rule="evenodd" d="M513.634,159.437c5.678-2.322,15.658-0.342,23-1
		C530.957,160.759,520.976,158.778,513.634,159.437z"/>
	<path fill-rule="evenodd" clip-rule="evenodd" d="M555.634,159.437c8.34-2.327,20.995-0.338,31-1
		C578.294,160.764,565.639,158.774,555.634,159.437z"/>
	<path fill-rule="evenodd" clip-rule="evenodd" d="M1.634,165.437c6.011-2.322,16.325-0.341,24-1
		C19.624,166.759,9.309,164.777,1.634,165.437z"/>
	<path fill-rule="evenodd" clip-rule="evenodd" d="M249.634,165.437c4.682-2.318,13.655-0.345,20-1
		C264.953,166.755,255.979,164.781,249.634,165.437z"/>
	<path fill-rule="evenodd" clip-rule="evenodd" d="M300.634,165.437c-6.082,0.401-19.704-0.286-29,0
		C279.036,163.716,293.213,163.848,300.634,165.437z"/>
	<path fill-rule="evenodd" clip-rule="evenodd" d="M443.634,165.437c4.35-2.316,12.987-0.346,19-1
		C458.285,166.753,449.647,164.782,443.634,165.437z"/>
	<path fill-rule="evenodd" clip-rule="evenodd" d="M496.634,165.437c2.366-2.3,8.976-0.358,13-1c4.667,0,9.333,0,14,0
		C516.625,166.762,505.307,164.776,496.634,165.437z"/>
	<path fill-rule="evenodd" clip-rule="evenodd" d="M538.634,165.437c5.346-2.321,14.99-0.343,22-1c7.333,0,14.667,0,22,0
		C569.964,166.767,552.97,164.772,538.634,165.437z"/>
	<path fill-rule="evenodd" clip-rule="evenodd" d="M1.634,171.437c5.014-2.319,14.323-0.344,21-1c7,0,14,0,21,0
		C31.631,172.767,15.304,170.772,1.634,171.437z"/>
	<path fill-rule="evenodd" clip-rule="evenodd" d="M138.634,171.437c24.001-2.332,52.333-0.334,78-1
		C192.633,172.769,164.302,170.771,138.634,171.437z"/>
	<path fill-rule="evenodd" clip-rule="evenodd" d="M229.634,170.437C220.069,173.387,216.287,169.279,229.634,170.437
		L229.634,170.437z"/>
	<path fill-rule="evenodd" clip-rule="evenodd" d="M320.634,172.437c-12.047,0.345-24.915-0.011-37-1
		c-7.255-0.594-46.286-0.703-24-1C280.333,170.16,301.202,171.194,320.634,172.437z"/>
	<path fill-rule="evenodd" clip-rule="evenodd" d="M345.634,171.437c5.346-2.321,14.99-0.343,22-1c7.333,0,14.667,0,22,0
		C376.964,172.767,359.97,170.772,345.634,171.437z"/>
	<path fill-rule="evenodd" clip-rule="evenodd" d="M414.634,171.437c5.678-2.322,15.658-0.342,23-1c7.667,0,15.333,0,23,0
		c15.333,0,30.667,0,46,0C477.967,172.77,444.968,170.771,414.634,171.437z"/>
	<path fill-rule="evenodd" clip-rule="evenodd" d="M555.634,170.437c-2.588-1.215-27.278,4.722-31,1
		C527.429,174.231,550.003,167.28,555.634,170.437z"/>
	<path fill-rule="evenodd" clip-rule="evenodd" d="M558.634,171.437c7.674-2.326,19.661-0.339,29-1
		C579.96,172.763,567.973,170.775,558.634,171.437z"/>
	<path fill-rule="evenodd" clip-rule="evenodd" d="M1.634,177.437c5.678-2.322,15.658-0.342,23-1c7.667,0,15.333,0,23,0
		c15.333,0,30.667,0,46,0c30.667,0,61.333,0,92,0C126.301,178.77,62.634,176.77,1.634,177.437z"/>
	<path fill-rule="evenodd" clip-rule="evenodd" d="M210.634,177.437c5.346-2.321,14.991-0.343,22-1
		C227.289,178.758,217.644,176.779,210.634,177.437z"/>
	<path fill-rule="evenodd" clip-rule="evenodd" d="M421.634,177.437c4.682-2.318,13.655-0.345,20-1c7,0,14,0,21,0
		c13.667,0,27.333,0,41,0C478.3,178.769,448.635,176.771,421.634,177.437z"/>
	<path fill-rule="evenodd" clip-rule="evenodd" d="M551.634,177.437c4.019-2.315,12.319-0.347,18-1c6,0,12,0,18,0
		C577.629,178.765,563.304,176.773,551.634,177.437z"/>
	<path fill-rule="evenodd" clip-rule="evenodd" d="M1.634,183.437c2.367-2.3,8.975-0.358,13-1c4.667,0,9.333,0,14,0
		C21.626,184.762,10.307,182.776,1.634,183.437z"/>
	<path fill-rule="evenodd" clip-rule="evenodd" d="M32.634,183.437c6.011-2.322,16.325-0.341,24-1c8.333,0,16.667,0,25,0
		c16.333,0,32.667,0,49,0c33,0,66,0,99,0C165.967,184.77,97.968,182.77,32.634,183.437z"/>
	<path fill-rule="evenodd" clip-rule="evenodd" d="M230.634,183.437c6.343-2.323,16.993-0.341,25-1
		C249.291,184.76,238.642,182.777,230.634,183.437z"/>
	<path fill-rule="evenodd" clip-rule="evenodd" d="M268.634,183.437c2.367-2.3,8.975-0.358,13-1c4.333,0,8.667,0,13,0
		C287.958,184.761,276.975,182.776,268.634,183.437z"/>
	<path fill-rule="evenodd" clip-rule="evenodd" d="M300.634,183.437c3.356-2.311,10.983-0.351,16-1c5.333,0,10.667,0,16,0
		C323.961,184.764,310.972,182.774,300.634,183.437z"/>
	<path fill-rule="evenodd" clip-rule="evenodd" d="M348.634,183.437c4.682-2.318,13.655-0.345,20-1
		C363.953,184.755,354.979,182.781,348.634,183.437z"/>
	<path fill-rule="evenodd" clip-rule="evenodd" d="M380.634,183.437c6.343-2.323,16.992-0.341,25-1c8.333,0,16.667,0,25,0
		C415.965,184.768,396.969,182.771,380.634,183.437z"/>
	<path fill-rule="evenodd" clip-rule="evenodd" d="M445.634,183.437c7.674-2.326,19.661-0.339,29-1c10,0,20,0,30,0c20,0,40,0,60,0
		C526.967,184.77,484.968,182.771,445.634,183.437z"/>
	<path fill-rule="evenodd" clip-rule="evenodd" d="M246.634,4.437c-57.825-2.875-120.531,2.595-179-1
		c57.111,3.225,119.744-4.76,176,0C244.851,3.54,251.685,3.453,246.634,4.437z"/>
	<path fill-rule="evenodd" clip-rule="evenodd" d="M412.634,9.437c-22.966,0.946-60.674-0.645-90,0
		C346.366,7.325,384.414,8.449,412.634,9.437z"/>
	<path fill-rule="evenodd" clip-rule="evenodd" d="M572.634,8.437c-16.11,2.559-44.383,1.615-65,3
		C527.281,8.417,551.046,9.515,572.634,8.437z"/>
	<path fill-rule="evenodd" clip-rule="evenodd" d="M28.634,10.437c20.648-2.979,42.611,1.387,65,0
		C72.886,13.516,50.9,9.173,28.634,10.437z"/>
	<path fill-rule="evenodd" clip-rule="evenodd" d="M167.634,9.437c-16.982,2.688-50.459,2.87-72,1
		C120.017,10.485,144.577,10.712,167.634,9.437z"/>
	<path fill-rule="evenodd" clip-rule="evenodd" d="M422.634,10.437c6.979-2.958,15.262,1.391,24,0c6.132,1.293-5.157,1.1-9,1
		C431.949,11.289,425.892,9.506,422.634,10.437z"/>
	<path fill-rule="evenodd" clip-rule="evenodd" d="M393.634,15.437c-40.393-1.924-74.621,2.563-112,0c2.192,0.15-9.325-0.223-3-1
		c31.145-3.827,68.975-0.335,101,0c12.597,0.132,28.059,1.169,35,2c11.446,1.37,4.287,0.122-1,0
		C406.667,16.275,396.71,15.583,393.634,15.437z"/>
	<path fill-rule="evenodd" clip-rule="evenodd" d="M109.634,17.437c-24.284,0.287-48.357,3.405-68-1c-6.131-1.375,3.292,0.132,0,0
		C60.505,17.193,84.185,17.477,109.634,17.437z"/>
	<path fill-rule="evenodd" clip-rule="evenodd" d="M170.634,15.437c-17.245,3.755-39.237,2.764-60,3
		C129.662,16.464,151.902,17.704,170.634,15.437z"/>
	<path fill-rule="evenodd" clip-rule="evenodd" d="M550.634,15.437c-32.372,3.077-77.898,3.505-115,2
		C471.896,17.146,512.897,17.107,550.634,15.437z"/>
	<path fill-rule="evenodd" clip-rule="evenodd" d="M226.634,19.437c6.382-4.565,28.576-0.261,40,0c3,0,6,0,9,0c2.667,0,5.333,0,8,0
		c-3.356,2.311-10.983,0.351-16,1c-12.814-1.186-26.038-1.962-40-2C226.784,18.253,226.691,18.826,226.634,19.437z"/>
	<path fill-rule="evenodd" clip-rule="evenodd" d="M195.634,20.437c1.467-0.986,7.819-1.84,13-2c4.065-0.126,14.087-0.097,8,1
		C208.552,18.688,203.158,20.627,195.634,20.437z"/>
	<path fill-rule="evenodd" clip-rule="evenodd" d="M191.634,19.437c-5.344,3.046-25.661,3.849-32,4c-3.185,0.076-4.075,1.55-1-1
		C170.323,22.125,181.197,21,191.634,19.437z"/>
	<path fill-rule="evenodd" clip-rule="evenodd" d="M20.634,21.437c-3.303,1.93-10.111-1.192-16,0
		C-2.072,19.749,17.503,20.289,20.634,21.437z"/>
	<path fill-rule="evenodd" clip-rule="evenodd" d="M389.634,20.437c6.292,1.833,26.275,0.223,26,2c-16.714-0.179-35.117-1-52-1
		c-9.722,0-19.779,3.059-29,0c2.854,0.947,13.034-1.012,12-1C360.809,20.282,371.365,20.548,389.634,20.437z"/>
	<path fill-rule="evenodd" clip-rule="evenodd" d="M586.634,20.437c-10.354,1.142-39.979,2.115-53,2c-2.597-0.023-5.2,2.032-1-1
		C551.383,21.853,567.524,19.659,586.634,20.437z"/>
	<path fill-rule="evenodd" clip-rule="evenodd" d="M209.634,23.437c9.339-2.328,22.996-0.338,34-1c3.251,1.767-8.602,0.977-13,1
		c-29.774,0.16-58.014,5.383-86,7C166.154,27.956,186.615,24.417,209.634,23.437z"/>
	<path fill-rule="evenodd" clip-rule="evenodd" d="M425.634,23.437c19.524-3.179,50.761,2.301,74-1
		C477.288,27.309,450.759,22.115,425.634,23.437z"/>
	<path fill-rule="evenodd" clip-rule="evenodd" d="M110.634,24.437c-10.93,1.54-34.966-0.992-52,0c-1.586-1.794,9.61-1,16-1
		C86.589,23.437,99.563,23.706,110.634,24.437z"/>
	<path fill-rule="evenodd" clip-rule="evenodd" d="M152.634,23.437c-10.489,3.844-25.868,2.799-40,3c11.018-2.315,26.754,0.088,37-3
		C150.634,23.437,151.634,23.437,152.634,23.437z"/>
	<path fill-rule="evenodd" clip-rule="evenodd" d="M249.634,24.437c11.087-2.028,34.4,0.889,50,1
		C285.01,27.056,266.134,24.274,249.634,24.437z"/>
	<path fill-rule="evenodd" clip-rule="evenodd" d="M12.634,27.437c-0.196-1.115,10.025-0.365,15,0
		C37.34,28.149,24.707,29.476,12.634,27.437z"/>
	<path fill-rule="evenodd" clip-rule="evenodd" d="M262.634,27.437c-14.831,0.275-35.591,0.28-52,2c-1.333,0.14-6.248,1.11-5-1
		C224.29,26.728,243.238,25.933,262.634,27.437z"/>
	<path fill-rule="evenodd" clip-rule="evenodd" d="M415.634,27.437c-16.167-0.109-31.202,0.74-42,0c-12.576-0.862,3.473-0.971,9-1
		C395.938,26.365,403.606,26.359,415.634,27.437z"/>
	<path fill-rule="evenodd" clip-rule="evenodd" d="M49.634,29.437c27.434-3.695,62.312,4.029,94,1
		C113.275,35.206,83.072,27.644,49.634,29.437z"/>
	<path fill-rule="evenodd" clip-rule="evenodd" d="M202.634,29.437c-27.752,4.581-55.364,9.303-88,9
		C145.665,37.134,173.444,32.579,202.634,29.437z"/>
	<path fill-rule="evenodd" clip-rule="evenodd" d="M298.634,31.437c21.834-0.165,52.758-0.76,76,1
		C349.105,32.3,322.732,33.005,298.634,31.437z"/>
	<path fill-rule="evenodd" clip-rule="evenodd" d="M224.634,32.437c14.541-3.493,37.423,1.875,55,2c3.573,2.782,2.253,1.001,0,1
		C265.558,35.433,242.368,31.002,224.634,32.437z"/>
	<path fill-rule="evenodd" clip-rule="evenodd" d="M395.634,32.437c0.441,0.723-16.674,0.988-19,0
		C378.943,33.418,387.899,29.946,395.634,32.437z"/>
	<path fill-rule="evenodd" clip-rule="evenodd" d="M417.634,33.437c2.559,0.195,21.686-0.891,31,0c2.868,0.274,5.119,0.429,1,1
		C441.548,35.558,432.218,34.407,417.634,33.437z"/>
	<path fill-rule="evenodd" clip-rule="evenodd" d="M465.634,34.437c1.8-2.383,20.597-2.757,6-1
		C469.061,33.746,470.094,34.711,465.634,34.437z"/>
	<path fill-rule="evenodd" clip-rule="evenodd" d="M32.634,34.437c10.48-2.088,39.171,0.117,50,1
		C64.858,36.213,50.021,34.05,32.634,34.437z"/>
	<path fill-rule="evenodd" clip-rule="evenodd" d="M212.634,33.437c1.596,1.662-7.864,0.754-10,2
		C201.316,34.052,208.894,33.079,212.634,33.437z"/>
	<path fill-rule="evenodd" clip-rule="evenodd" d="M90.634,35.437c-2.729-2.393,30.358,3.596,11,2
		C98.406,37.171,94.163,35.613,90.634,35.437z"/>
	<path fill-rule="evenodd" clip-rule="evenodd" d="M182.634,38.437c-3.873-3.616,7.211-0.731,8-3
		C205.857,35.873,186.135,36.51,182.634,38.437z"/>
	<path fill-rule="evenodd" clip-rule="evenodd" d="M299.634,36.437c0.19-1.135,1.003-0.556,1,0c7.333,0,14.666,0,22,0
		c1.2,1.146,0.39,2.534,0,1C315.203,36.868,305.436,38.635,299.634,36.437z"/>
	<path fill-rule="evenodd" clip-rule="evenodd" d="M1.634,38.437c54.28-3.337,111.042,6.964,165,1
		C114.243,47.035,57.564,36.875,1.634,38.437z"/>
	<path fill-rule="evenodd" clip-rule="evenodd" d="M221.634,39.437c2.971-1.972,31.79-2.868,10-1
		C228.682,38.689,227.284,40.145,221.634,39.437z"/>
	<path fill-rule="evenodd" clip-rule="evenodd" d="M259.634,38.437c10.352-1.293,30.303,4.986,48,3
		C291.159,44.907,274.798,39.61,259.634,38.437z"/>
	<path fill-rule="evenodd" clip-rule="evenodd" d="M217.634,38.437c-4.091,2.767-19.905,2.601-3,1
		C215.481,39.356,216.225,38.049,217.634,38.437z"/>
	<path fill-rule="evenodd" clip-rule="evenodd" d="M197.634,41.437c-10.747,2.542-45.728,6.162-64,6c-2.48-0.022-5.451,2.14-1-1
		C156.912,47.381,175.32,42.455,197.634,41.437z"/>
	<path fill-rule="evenodd" clip-rule="evenodd" d="M41.634,44.437c-5.751,0.996-32.186,0.255-39-1
		C16.212,43.192,29.249,43.488,41.634,44.437z"/>
	<path fill-rule="evenodd" clip-rule="evenodd" d="M249.634,44.437c5.65-2.294,15.245,0.07,21,1
		C262.563,46.175,257.592,43.812,249.634,44.437z"/>
	<path fill-rule="evenodd" clip-rule="evenodd" d="M207.634,46.437c2.039-2.295,8.305-0.362,12-1c-4.867,0.599-19.191,3-29,3
		c-7.283,0-1.987-0.334,3-1C195.816,47.146,198.79,45.992,207.634,46.437z"/>
	<path fill-rule="evenodd" clip-rule="evenodd" d="M278.634,47.437c6.794-1.485,24.254,1,34,1c10.57,0-4.965,0.099-8,0
		C296.76,48.182,285.766,48.894,278.634,47.437z"/>
	<path fill-rule="evenodd" clip-rule="evenodd" d="M397.634,50.437c53.527-3.294,107.479-5.19,162-2c1.858,0.108,9.346,0.12,3,1
		c-15.527,2.152-28.769-0.505-42-1C484.729,47.092,436.147,49.646,397.634,50.437z"/>
	<path fill-rule="evenodd" clip-rule="evenodd" d="M11.634,49.437c1.2-1.401,0.39-0.086,0,1
		C0.707,51.128,0.707,48.745,11.634,49.437z"/>
	<path fill-rule="evenodd" clip-rule="evenodd" d="M53.634,49.437c31.267-3.266,59.953,4.712,94,2
		C115.268,55.802,86.359,48.046,53.634,49.437z"/>
	<path fill-rule="evenodd" clip-rule="evenodd" d="M184.634,48.437c-4.312,1.544-25.573,3.157-33,3c-2.015-0.043-3.42,1.77-1-1
		C163.237,51.039,172.401,48.203,184.634,48.437z"/>
	<path fill-rule="evenodd" clip-rule="evenodd" d="M236.634,51.437c2.736-3.183,19.575-2.157,26,0
		C253.329,51.7,245.116,49.124,236.634,51.437z"/>
	<path fill-rule="evenodd" clip-rule="evenodd" d="M217.634,51.437c8.625-2.801,19.618-0.298,8,0
		C222.19,51.524,215.045,52.277,217.634,51.437z"/>
	<path fill-rule="evenodd" clip-rule="evenodd" d="M540.634,53.437c-24.57-1.882-60.735,0.109-87-1
		C482.119,51.892,513.856,49.822,540.634,53.437z"/>
	<path fill-rule="evenodd" clip-rule="evenodd" d="M192.634,52.437c12.172-0.445,12.637,1.309,1,1
		C191.478,53.379,190.415,55.081,192.634,52.437z"/>
	<path fill-rule="evenodd" clip-rule="evenodd" d="M40.634,53.437c-6.414,1.324-31.146,3.428-38,1
		C16.396,55.197,27.379,53.182,40.634,53.437z"/>
	<path fill-rule="evenodd" clip-rule="evenodd" d="M187.634,53.437c-1.611,2.077-14.521,1.464-20,3
		C171.941,53.077,181.04,54.508,187.634,53.437z"/>
	<path fill-rule="evenodd" clip-rule="evenodd" d="M280.634,54.437c18.426,0.267,55.696-1.049,79,1
		C333.47,54.934,305.193,56.544,280.634,54.437z"/>
	<path fill-rule="evenodd" clip-rule="evenodd" d="M428.634,55.437c5.281-1.726,14.496-2.053,18-2c10.343,0.156,1.481,0.568-6,1
		C436.625,54.668,435.218,56.099,428.634,55.437z"/>
	<path fill-rule="evenodd" clip-rule="evenodd" d="M543.634,54.437c6.218,0.237,25.171-1.006,39,0c-4.748-0.346,9.113,0.144,1,1
		C572.916,56.567,560.959,55.297,543.634,54.437z"/>
	<path fill-rule="evenodd" clip-rule="evenodd" d="M156.634,56.437c-20.734,1.402-39.275,3.751-56,0c-6.131-1.375,3.292,0.132,0,0
		C116.219,57.062,135.058,57.248,156.634,56.437z"/>
	<path fill-rule="evenodd" clip-rule="evenodd" d="M476.634,56.437c7.85-2.435,33.513-0.242,41,1
		C503.272,57.799,491.409,55.662,476.634,56.437z"/>
	<path fill-rule="evenodd" clip-rule="evenodd" d="M225.634,58.437c2.367-2.3,8.975-0.358,13-1
		C237.934,59.856,194.02,59.263,225.634,58.437z"/>
	<path fill-rule="evenodd" clip-rule="evenodd" d="M526.634,58.437c4.231-2.405,18.528,2.021,28,1
		C546.233,62.157,535.89,58.191,526.634,58.437z"/>
	<path fill-rule="evenodd" clip-rule="evenodd" d="M86.634,58.437c-22.893,1.673-57.514,1.065-85,3
		C27.55,58.019,57.316,58.452,86.634,58.437z"/>
	<path fill-rule="evenodd" clip-rule="evenodd" d="M200.634,58.437c1,0,2,0,3,0c0.715,2.716-4.715-0.716-4,2
		c-17.764-0.431-32.321,2.346-50,2C165.247,59.716,184.775,60.91,200.634,58.437z"/>
	<path fill-rule="evenodd" clip-rule="evenodd" d="M242.634,59.437c31.418-1.417,66.021,2.645,101,1
		C310.395,63.675,275.567,59.838,242.634,59.437z"/>
	<path fill-rule="evenodd" clip-rule="evenodd" d="M442.634,58.437c-19.451,3.244-51.134,5.885-76,4
		C390.459,62.399,417.943,60.584,442.634,58.437z"/>
	<path fill-rule="evenodd" clip-rule="evenodd" d="M94.634,60.437c5.237-2.212,14.546,0.103,20,1
		C106.864,62.207,102.167,59.904,94.634,60.437z"/>
	<path fill-rule="evenodd" clip-rule="evenodd" d="M505.634,63.437c-0.794-0.561,24.756-0.401,22,1
		C520.157,64.248,511.652,65.085,505.634,63.437z"/>
	<path fill-rule="evenodd" clip-rule="evenodd" d="M53.634,65.437c17.879-4.358,40.221-0.823,59,0c1.2,1.146,0.39,2.534,0,1
		C93.528,65.079,73.436,63.274,53.634,65.437z"/>
	<path fill-rule="evenodd" clip-rule="evenodd" d="M428.634,66.437c-3.724-1.387,2.943-0.15,2-2c5,0,10,0,15,0
		C441.907,67.042,432.513,63.982,428.634,66.437z"/>
	<path fill-rule="evenodd" clip-rule="evenodd" d="M24.634,65.437c-2.848,0.911-12.487,3.04-20,2c-5.324-0.737,0.875-0.833,2-1
		C9.607,65.995,17.689,66.13,24.634,65.437z"/>
	<path fill-rule="evenodd" clip-rule="evenodd" d="M167.634,66.437c28.688,0.722,63.818-3.334,87-1c4.251,0.428,9.59,0.914,1,1
		C226.87,66.723,197.732,67.087,167.634,66.437z"/>
	<path fill-rule="evenodd" clip-rule="evenodd" d="M541.634,66.437c5.452-3.089,12.123,1.188,19,0
		C559.031,69.39,547.975,65.328,541.634,66.437z"/>
	<path fill-rule="evenodd" clip-rule="evenodd" d="M407.634,66.437c-7.41,2.955-18.313,3.915-29,3c-7.949-0.681,0.369-0.834,3-1
		C387.521,68.065,398.853,68.605,407.634,66.437z"/>
	<path fill-rule="evenodd" clip-rule="evenodd" d="M466.634,68.437c4.682-2.318,13.655-0.345,20-1c-10.132,1.54-30.05,1.946-44,3
		C449.465,68.601,457.851,68.32,466.634,68.437z"/>
	<path fill-rule="evenodd" clip-rule="evenodd" d="M498.634,68.437c24.335-1.902,55.98,6.098,89,4
		C556.815,76.254,528.659,68.746,498.634,68.437z"/>
	<path fill-rule="evenodd" clip-rule="evenodd" d="M69.634,70.437c33.87-2.079,77.623,4.26,119,2
		C148.468,76.269,109.365,70.373,69.634,70.437z"/>
	<path fill-rule="evenodd" clip-rule="evenodd" d="M39.634,70.437c3.333,0,6.667,0,10,0c-1.669,2.664-9.221-0.555-11,2
		C36.727,71.576,39.714,71.843,39.634,70.437z"/>
	<path fill-rule="evenodd" clip-rule="evenodd" d="M441.634,70.437c-40.606,7.92-90.595,0.858-135,4
		C349.39,69.489,399.442,76.791,441.634,70.437z"/>
	<path fill-rule="evenodd" clip-rule="evenodd" d="M250.634,74.437c10.667-0.336,30.649-0.655,46,0c1.316,0.057,7.287-1.134,5,1
		C284.138,75.6,266.881,75.523,250.634,74.437z"/>
	<path fill-rule="evenodd" clip-rule="evenodd" d="M460.634,75.437c2.366-2.3,8.976-0.358,13-1c-2.838,0.958-23.162,3.336-26,1
		C451.967,75.437,456.301,75.437,460.634,75.437z"/>
	<path fill-rule="evenodd" clip-rule="evenodd" d="M492.634,75.437c13.162-3.108,36.071,1.223,53,1
		C529.453,78.614,511.439,73.969,492.634,75.437z"/>
	<path fill-rule="evenodd" clip-rule="evenodd" d="M90.634,75.437c3.667,0,7.333,0,11,0C107.622,78.388,93.021,76.415,90.634,75.437
		z"/>
	<path fill-rule="evenodd" clip-rule="evenodd" d="M28.634,78.437c1.765-0.914,8.619-1.861,14-2c4.069-0.105,13.961-0.136,8,1
		C42.192,76.661,36.646,78.781,28.634,78.437z"/>
	<path fill-rule="evenodd" clip-rule="evenodd" d="M105.634,77.437c23.607,0.466,63.003,1.719,93,0
		C169.841,80.552,134.537,79.969,105.634,77.437z"/>
	<path fill-rule="evenodd" clip-rule="evenodd" d="M219.634,78.437c3.689-0.333,15.44-0.124,21,1
		C236.191,80.523,225.177,79.578,219.634,78.437z"/>
	<path fill-rule="evenodd" clip-rule="evenodd" d="M427.634,77.437c-12.187,2.15-32.627,4.704-51,4
		C393.899,80.368,410.317,78.453,427.634,77.437z"/>
	<path fill-rule="evenodd" clip-rule="evenodd" d="M547.634,78.437c5.386-0.63,32.39-0.458,39,1
		C573.309,79.429,559.6,79.804,547.634,78.437z"/>
	<path fill-rule="evenodd" clip-rule="evenodd" d="M374.634,79.437c-17.489-1.268-57.031,1.992-77,2c-3.208,0.001-6.915,2.123-1-1
		C322.23,79.628,348.639,76.819,374.634,79.437z"/>
	<path fill-rule="evenodd" clip-rule="evenodd" d="M291.634,81.437c-13.41,0.359-39.417,3.708-49-1
		C249.552,83.835,271.721,79.894,291.634,81.437z"/>
	<path fill-rule="evenodd" clip-rule="evenodd" d="M468.634,80.437c20.55-2.855,50.307,2.34,75,2
		C519.798,84.604,494.69,79.383,468.634,80.437z"/>
	<path fill-rule="evenodd" clip-rule="evenodd" d="M449.634,81.437c0.023,1.136-24.285,4.177-19,1
		C438.033,83.168,442.848,81.317,449.634,81.437z"/>
	<path fill-rule="evenodd" clip-rule="evenodd" d="M114.634,83.437c-26.729-0.713,9.274-1.515,12,1
		C122.939,83.799,116.673,85.731,114.634,83.437z"/>
	<path fill-rule="evenodd" clip-rule="evenodd" d="M231.634,85.437c-5.738,1.89-26.354-1.332-8,0
		C225.768,85.592,228.707,85.325,231.634,85.437z"/>
	<path fill-rule="evenodd" clip-rule="evenodd" d="M339.634,84.437c0.574,1.292-7.823,2.139-12,2
		C330.763,84.898,335.375,84.845,339.634,84.437z"/>
	<path fill-rule="evenodd" clip-rule="evenodd" d="M357.634,85.437c5.81-2.37,29.25,0.001,35,1
		C379.984,87.087,370.354,84.717,357.634,85.437z"/>
	<path fill-rule="evenodd" clip-rule="evenodd" d="M233.634,87.437c9.874,1.042,45.578,0.863,61,1c2.265,0.021,5.799-2.249,1,1
		C274.755,88.982,251.582,90.822,233.634,87.437z"/>
	<path fill-rule="evenodd" clip-rule="evenodd" d="M490.634,86.437c-45.207,4.903-107.705,2.262-159,6c-2.475,0.127-1.7-1.225,0-1
		C383.087,88.223,438.851,89.32,490.634,86.437z"/>
	<path fill-rule="evenodd" clip-rule="evenodd" d="M493.634,87.437c11.528-1.567,30.544-1.26,42,0c4.205,0.463,7.65,0.829,1,1
		C528.781,88.638,508.017,86.833,493.634,87.437z"/>
	<path fill-rule="evenodd" clip-rule="evenodd" d="M94.634,88.437c5.209-2.427,28.224-0.313,33,1
		C116.048,89.689,106.729,87.676,94.634,88.437z"/>
	<path fill-rule="evenodd" clip-rule="evenodd" d="M62.634,88.437c-0.226,1.44-2.985,0.349-3,2c-15.335-0.664-33.331,1.33-47-1
		C29.087,88.89,47.803,90.605,62.634,88.437z"/>
	<path fill-rule="evenodd" clip-rule="evenodd" d="M545.634,89.437c-1.477-2.613,5.615,1.065,9,0
		C556.413,91.748,547.643,89.747,545.634,89.437z"/>
	<path fill-rule="evenodd" clip-rule="evenodd" d="M144.634,89.437c4.491-0.491,7.493,0.507,11,1c27.682-2.825,57.99-0.13,83,3
		C216.689,90.654,168.216,91.23,144.634,89.437z"/>
	<path fill-rule="evenodd" clip-rule="evenodd" d="M322.634,92.437c-5.024,1.667-28.818,2.102-37,2c-2.05-0.025-3.473,1.817-1-1
		C298.411,94.214,309.239,92.041,322.634,92.437z"/>
	<path fill-rule="evenodd" clip-rule="evenodd" d="M491.634,92.437c-30.498,3.268-68.547,3.984-99,4
		C425.126,94.595,459.045,94.182,491.634,92.437z"/>
	<path fill-rule="evenodd" clip-rule="evenodd" d="M505.634,93.437c19.248-1.555,49.001,3.646,75,2
		C555.745,98.657,530.115,93.957,505.634,93.437z"/>
	<path fill-rule="evenodd" clip-rule="evenodd" d="M92.634,94.437c41.012-1.442,83.499,0.236,123,2c1.2,1.146,0.39,2.534,0,1
		c-43.189-6.02-107.783,1.444-156-2c-8.347-0.596,11.265-1,14-1c5.698,0,10.209,0,17,0C91.301,94.437,91.968,94.437,92.634,94.437z"
		/>
	<path fill-rule="evenodd" clip-rule="evenodd" d="M242.634,94.437c2.178-0.027,22.075-0.853,29,1
		C262.131,94.939,250.536,96.535,242.634,94.437z"/>
	<path fill-rule="evenodd" clip-rule="evenodd" d="M377.634,95.437c2.475-0.127,1.7,1.225,0,1c-46.144,2.055-91.267,6.322-139,4
		C284.456,100.423,331.797,98.188,377.634,95.437z"/>
	<path fill-rule="evenodd" clip-rule="evenodd" d="M224.634,98.437c-21.96-2.461,25.854,1.554,2,1
		C225.302,99.405,225.09,98.487,224.634,98.437z"/>
	<path fill-rule="evenodd" clip-rule="evenodd" d="M72.634,100.437c15.568-3.099,35.653-1.68,54-2c-0.027,0.973-1.224,0.776-2,1
		C106.642,99.111,89.499,99.634,72.634,100.437z"/>
	<path fill-rule="evenodd" clip-rule="evenodd" d="M137.634,100.437c12.088-2.366,36.118,0.508,52,1
		C174.643,102.757,155.253,99.821,137.634,100.437z"/>
	<path fill-rule="evenodd" clip-rule="evenodd" d="M469.634,99.437c-0.354,1.35-9.976,1.997-15,2
		C458.769,99.905,464.131,99.601,469.634,99.437z"/>
	<path fill-rule="evenodd" clip-rule="evenodd" d="M62.634,100.437c-13.699,1.334-45.858,3.434-60,1
		C23.732,102.201,42.022,100.157,62.634,100.437z"/>
	<path fill-rule="evenodd" clip-rule="evenodd" d="M533.634,101.437c2.965-2.898,8.233,0.384,12,0
		C543.034,103.971,538.421,100.032,533.634,101.437z"/>
	<path fill-rule="evenodd" clip-rule="evenodd" d="M356.634,103.437c1.2-1.401,0.39-0.086,0,1c-5.349-0.651-13.313,1.313-17-1
		C345.301,103.437,350.967,103.437,356.634,103.437z"/>
	<path fill-rule="evenodd" clip-rule="evenodd" d="M107.634,103.437c-13.218,2.452-37.654,2.343-56,3
		C68.978,104.113,89.033,104.502,107.634,103.437z"/>
	<path fill-rule="evenodd" clip-rule="evenodd" d="M125.634,104.437c-5.955-2.373,3.384,0.05,2,0c27.319,0.977,62.195,1.592,90,4
		C189.57,108.5,155.373,106.032,125.634,104.437z"/>
	<path fill-rule="evenodd" clip-rule="evenodd" d="M216.634,104.437c6.527-2.102,31.142,0.121,38,1
		C240.857,106.214,230.029,104.041,216.634,104.437z"/>
	<path fill-rule="evenodd" clip-rule="evenodd" d="M256.634,105.437c3.411-1.323,31.421,0.435,19,1
		C272.091,106.598,264.404,106.063,256.634,105.437z"/>
	<path fill-rule="evenodd" clip-rule="evenodd" d="M333.634,104.437c-5.533,0.886-28.71,3.18-34,1
		C311.791,105.926,321.194,103.662,333.634,104.437z"/>
	<path fill-rule="evenodd" clip-rule="evenodd" d="M478.634,106.437c-0.184-0.851,0.39-0.943,1-1c8.667,0,17.333,0,26,0
		c-1.802,2.218-16.233,0.418-23,1c-38.234,3.65-82.904,0.18-119,2C400.634,104.666,439.67,108.663,478.634,106.437z"/>
	<path fill-rule="evenodd" clip-rule="evenodd" d="M565.634,107.437c-16.956-0.82-30.613,1.554-42-1c-3.984-0.894,2.204,0.088,0,0
		C533.614,106.837,551.476,105.313,565.634,107.437z"/>
	<path fill-rule="evenodd" clip-rule="evenodd" d="M219.634,108.437c4.667,0,9.333,0,14,0
		C239.53,111.23,222.491,109.444,219.634,108.437z"/>
	<path fill-rule="evenodd" clip-rule="evenodd" d="M355.634,108.437c-1.317,1.571-16.887,2.412-22,2c-7.704-0.621-1.115-0.88,0-1
		C337.226,109.05,346.296,109.501,355.634,108.437z"/>
	<path fill-rule="evenodd" clip-rule="evenodd" d="M167.634,111.437c-31.247-1.006-72.467-0.499-105-1
		C97.413,109.27,134.153,108.721,167.634,111.437z"/>
	<path fill-rule="evenodd" clip-rule="evenodd" d="M266.634,110.437c11.702,0.011,41.509-0.876,58,1
		C305.354,111.05,284.36,112.378,266.634,110.437z"/>
	<path fill-rule="evenodd" clip-rule="evenodd" d="M54.634,111.437c-7.241,2.433-25.987,2.008-39,2
		C27.411,111.547,42.219,112.688,54.634,111.437z"/>
	<path fill-rule="evenodd" clip-rule="evenodd" d="M169.634,112.437c2.965-2.898,8.233,0.384,12,0
		C179.034,114.971,174.421,111.032,169.634,112.437z"/>
	<path fill-rule="evenodd" clip-rule="evenodd" d="M198.634,113.437c5.519,0.294,24.667-0.97,38,0c-5.618-0.408,9.378,0.116,1,1
		C227.39,115.518,215.502,114.393,198.634,113.437z"/>
	<path fill-rule="evenodd" clip-rule="evenodd" d="M421.634,114.437c-41.168-2.423-80.38,1.971-123,1
		C338.927,114.771,382.799,110.312,421.634,114.437z"/>
	<path fill-rule="evenodd" clip-rule="evenodd" d="M430.634,115.437c27.371-3.296,58.437-2.896,89-3
		C490.792,114.261,459.589,113.726,430.634,115.437z"/>
	<path fill-rule="evenodd" clip-rule="evenodd" d="M92.634,115.437c9,0,18,0,27,0C114.257,116.568,87.308,117.821,92.634,115.437z"
		/>
	<path fill-rule="evenodd" clip-rule="evenodd" d="M84.634,116.437c-15.441,1.895-41.207,2.124-61,3
		C42.539,117.008,63.667,116.804,84.634,116.437z"/>
	<path fill-rule="evenodd" clip-rule="evenodd" d="M130.634,117.437c9.819-2.421,37.684-0.4,47,1
		C161.452,118.619,147.38,116.69,130.634,117.437z"/>
	<path fill-rule="evenodd" clip-rule="evenodd" d="M430.634,120.437c22.195,0.065,50.759-0.906,75-2
		c-21.474,3.192-46.909,2.424-71,3C434.325,120.079,432.13,120.606,430.634,120.437z"/>
	<path fill-rule="evenodd" clip-rule="evenodd" d="M247.634,124.437c-83.133-0.593-165.523-0.409-245,0
		c76.524-0.067,158.875-4.461,240-1C243.902,123.49,253.035,123.266,247.634,124.437z"/>
	<path fill-rule="evenodd" clip-rule="evenodd" d="M254.634,124.437c13.449,0.933,33.474-1.975,52,0c10.132,1.08-5.021,1.115-3,1
		C290.589,126.178,274.79,125.346,254.634,124.437z"/>
	<path fill-rule="evenodd" clip-rule="evenodd" d="M428.634,126.437c12.84-2.279,39.778,2.136,57-1
		C469.467,129.953,446.877,126.224,428.634,126.437z"/>
	<path fill-rule="evenodd" clip-rule="evenodd" d="M215.634,130.437c7.352-3.001,20.019-2.631,26-2c8.348,0.881-8.377,1.072-6,1
		C228.487,129.654,221.578,128.743,215.634,130.437z"/>
	<path fill-rule="evenodd" clip-rule="evenodd" d="M329.634,129.437c18.793-2.43,50.2-0.223,72,1
		C376.802,130.936,354.74,128.665,329.634,129.437z"/>
	<path fill-rule="evenodd" clip-rule="evenodd" d="M184.634,130.437c9.053-0.431,41.969-0.642,20,0c-49.803,1.454-105.699,1-159,1
		c-10.551,0-17.816,0.604-25,0c-10.927-0.918,7.274-1,14-1c16.384,0,36.194,0,49,0C109.437,130.437,150.594,132.058,184.634,130.437
		z"/>
	<path fill-rule="evenodd" clip-rule="evenodd" d="M403.634,130.437c3.414-3.023,8.578,0.712,13,0
		C416.973,133.206,408.213,129.263,403.634,130.437z"/>
	<path fill-rule="evenodd" clip-rule="evenodd" d="M527.634,130.437c-30.432,1.397-62.809,3.345-93,2
		C463.318,132.121,495.447,130.179,527.634,130.437z"/>
	<path fill-rule="evenodd" clip-rule="evenodd" d="M197.634,136.437c-1.787,0.282-2.052-0.945-1-1c49.943-4.053,106.06,0,161,0
		c5.998,0,12.202-1.22,21,0c6.355,0.881-9.593,1-14,1C312.375,136.437,260.155,132.494,197.634,136.437z"/>
	<path fill-rule="evenodd" clip-rule="evenodd" d="M1.634,136.437c18.726-2.39,41.353-0.022,60,1
		C40.659,138.079,22.692,135.712,1.634,136.437z"/>
	<path fill-rule="evenodd" clip-rule="evenodd" d="M187.634,137.437c-4.333,0-8.667,0-13,0
		C177.321,136.443,193.59,134.59,187.634,137.437z"/>
	<path fill-rule="evenodd" clip-rule="evenodd" d="M393.634,136.437c26.36-2.216,67.096,2.953,100,0
		C461.853,140.951,427.199,136.19,393.634,136.437z"/>
	<path fill-rule="evenodd" clip-rule="evenodd" d="M586.634,135.437c-23.637,2.698-61.915-0.583-89,2
		C519.946,133.413,557.849,136.319,586.634,135.437z"/>
	<path fill-rule="evenodd" clip-rule="evenodd" d="M84.634,137.437c-1.144,2.799-11.792-1.289-18,0
		C67.808,134.608,79.28,137.872,84.634,137.437z"/>
	<path fill-rule="evenodd" clip-rule="evenodd" d="M253.634,139.437c10.137-0.45,29.199-0.583,44,0c1.308,0.052,7.718-1.15,5,1
		C285.76,140.644,269.29,140.448,253.634,139.437z"/>
	<path fill-rule="evenodd" clip-rule="evenodd" d="M217.634,140.437c3.356-2.311,10.983-0.351,16-1c-17.212,2.124-43.604,3.728-66,4
		C183.366,141.502,200.719,141.188,217.634,140.437z"/>
	<path fill-rule="evenodd" clip-rule="evenodd" d="M6.634,142.437c12.147-2.43,42.098-0.138,54,1
		C41.801,143.937,25.74,141.664,6.634,142.437z"/>
	<path fill-rule="evenodd" clip-rule="evenodd" d="M468.634,143.437c-8.333,0-16.667,0-25,0
		C436.372,141.071,463.066,142.245,468.634,143.437z"/>
	<path fill-rule="evenodd" clip-rule="evenodd" d="M161.634,142.437c0.667,0,1.333,0,2,0c5.257,0.389-4.261,2.035-4,2
		c-27.183,3.706-63.818-0.852-93,0C96.324,142.854,131.699,146.085,161.634,142.437z"/>
	<path fill-rule="evenodd" clip-rule="evenodd" d="M270.634,145.437c-41.726-0.18-86.562,4.615-131,5
		C182.454,148.47,227.311,143.609,270.634,145.437z"/>
	<path fill-rule="evenodd" clip-rule="evenodd" d="M508.634,148.437c-61.931,0.018-126.896-2-187-2c-9.393,0-13.964,2.002-20,0
		c3.356,1.113,12.646-1,17-1c56.261,0,116.764,2,176,2C497.683,147.437,513.068,146.833,508.634,148.437z"/>
	<path fill-rule="evenodd" clip-rule="evenodd" d="M24.634,148.437c18.313-2.281,47.277,2.033,70,2
		C72.839,152.229,48.375,148.03,24.634,148.437z"/>
	<path fill-rule="evenodd" clip-rule="evenodd" d="M249.634,151.437c7.339-2.656,16.554,1.434,26,0
		c-46.786,1.33-113.787,4.649-170,6c-1.54-0.529-0.063-1.043,1-1C154.78,155.249,201.729,152.864,249.634,151.437z"/>
	<path fill-rule="evenodd" clip-rule="evenodd" d="M393.634,152.437c32.778-1.031,83.512,1.229,123,2
		C474.156,155.249,434.422,153.314,393.634,152.437z"/>
	<path fill-rule="evenodd" clip-rule="evenodd" d="M67.634,155.437c4.627-0.275,17.121,0.198,25,0c1.983,0.908,1.983,3.358,0,1
		C84.549,155.854,74.083,157.654,67.634,155.437z"/>
	<path fill-rule="evenodd" clip-rule="evenodd" d="M242.634,157.437c-19.077,4.59-47.022,0.312-68,3
		C194.061,156.196,221.819,160.288,242.634,157.437z"/>
	<path fill-rule="evenodd" clip-rule="evenodd" d="M64.634,161.437c-4.458-2.542-14.667,0.667-19-2c5.667,0,11.333,0,17,0
		C61.691,161.286,68.357,160.05,64.634,161.437z"/>
	<path fill-rule="evenodd" clip-rule="evenodd" d="M173.634,159.437c-5.056,2.411-23.459,1.417-12,0
		C164.995,159.021,168.985,159.735,173.634,159.437z"/>
	<path fill-rule="evenodd" clip-rule="evenodd" d="M71.634,161.437c25.253-0.677,56.939,0.709,84-1
		C130.201,163.657,98.522,162.572,71.634,161.437z"/>
	<path fill-rule="evenodd" clip-rule="evenodd" d="M424.634,163.437c-37.099,2.235-81.31,2.689-118,2
		C345.633,164.436,385.191,163.993,424.634,163.437z"/>
	<path fill-rule="evenodd" clip-rule="evenodd" d="M47.634,165.437c17.756-1.392,47.912,2.065,72,1
		C96.651,169.084,70.735,166.004,47.634,165.437z"/>
	<path fill-rule="evenodd" clip-rule="evenodd" d="M240.634,164.437c-34.505,1.805-80.945,0.713-120,3
		C157.828,163.631,199.751,164.554,240.634,164.437z"/>
	<path fill-rule="evenodd" clip-rule="evenodd" d="M70.634,171.437c14.525,0.928,39.861-2.158,59,0c-5.154-0.581,7.709-0.083,1,1
		C110.137,172.601,89.882,172.521,70.634,171.437z"/>
	<path fill-rule="evenodd" clip-rule="evenodd" d="M392.634,175.437c-47.477,2.366-99.977,3.509-146,2c-22.912-0.751,8.479-1,17-1
		C305.725,176.437,352.09,177.035,392.634,175.437z"/>
	<path fill-rule="evenodd" clip-rule="evenodd" d="M414.634,176.437c2.743,1.127-6.716-0.711-10,0c-2.173-1.917,7.312-0.631,10-1
		C414.634,175.77,414.634,176.104,414.634,176.437z"/>
	<g>
		<path fill="#FFFFFF" stroke="#000000" d="M156.402,43.452l-10.992,33.6h-8.352L129.667,54.3l-7.632,22.752h-8.304l-11.04-33.6
			h8.064l7.584,23.615l7.92-23.615h7.2l7.68,23.808l7.824-23.808H156.402z"/>
		<path fill="#FFFFFF" stroke="#000000" d="M177.906,53.7c2.144,1.904,3.216,4.775,3.216,8.615v14.736h-7.008v-3.216
			c-1.408,2.399-4.032,3.6-7.872,3.6c-1.984,0-3.704-0.336-5.16-1.008s-2.568-1.6-3.336-2.784c-0.768-1.184-1.152-2.527-1.152-4.031
			c0-2.4,0.904-4.289,2.712-5.664c1.808-1.377,4.6-2.064,8.376-2.064h5.952c0-1.632-0.496-2.889-1.488-3.768
			c-0.992-0.881-2.48-1.32-4.464-1.32c-1.376,0-2.728,0.217-4.056,0.648s-2.456,1.016-3.384,1.752l-2.688-5.232
			c1.408-0.992,3.096-1.76,5.064-2.305c1.968-0.543,3.992-0.815,6.072-0.815C172.69,50.844,175.762,51.796,177.906,53.7z
			 M171.522,71.508c0.992-0.592,1.696-1.464,2.112-2.616v-2.64h-5.136c-3.072,0-4.608,1.009-4.608,3.024
			c0,0.959,0.376,1.72,1.128,2.279c0.752,0.561,1.784,0.84,3.096,0.84C169.394,72.396,170.53,72.101,171.522,71.508z"/>
		<path fill="#FFFFFF" stroke="#000000" d="M187.89,41.436h7.488v35.616h-7.488V41.436z"/>
		<path fill="#FFFFFF" stroke="#000000" d="M213.426,66.924l-3.6,3.552v6.576h-7.488V41.436h7.488v20.16l10.944-10.368h8.928
			l-10.752,10.944l11.712,14.88h-9.072L213.426,66.924z"/>
		<path fill="#FFFFFF" stroke="#000000" d="M264.256,75.804c-0.736,0.544-1.64,0.952-2.712,1.225
			c-1.072,0.271-2.2,0.407-3.384,0.407c-3.072,0-5.448-0.784-7.128-2.352c-1.68-1.567-2.52-3.872-2.52-6.912V57.563h-3.984v-5.76
			h3.984v-6.288H256v6.288h6.432v5.76H256v10.512c0,1.088,0.28,1.929,0.84,2.521c0.56,0.593,1.352,0.888,2.376,0.888
			c1.184,0,2.192-0.319,3.024-0.959L264.256,75.804z"/>
		<path fill="#FFFFFF" stroke="#000000" d="M291.928,53.724c1.968,1.92,2.952,4.768,2.952,8.544v14.784h-7.488V63.42
			c0-2.048-0.448-3.576-1.344-4.584s-2.192-1.513-3.888-1.513c-1.888,0-3.392,0.584-4.512,1.752s-1.68,2.904-1.68,5.209v12.768
			h-7.488V41.436h7.488v12.479c0.992-0.991,2.192-1.751,3.6-2.279c1.408-0.527,2.944-0.792,4.608-0.792
			C287.376,50.844,289.96,51.804,291.928,53.724z"/>
		<path fill="#FFFFFF" stroke="#000000" d="M327.087,66.252h-19.536c0.352,1.601,1.184,2.864,2.496,3.792s2.944,1.392,4.896,1.392
			c1.344,0,2.536-0.2,3.576-0.6s2.008-1.032,2.903-1.896l3.984,4.319c-2.432,2.784-5.984,4.176-10.656,4.176
			c-2.912,0-5.488-0.567-7.728-1.704c-2.24-1.135-3.968-2.711-5.184-4.728c-1.216-2.016-1.824-4.304-1.824-6.864
			c0-2.527,0.6-4.808,1.8-6.84c1.2-2.031,2.848-3.615,4.944-4.752c2.096-1.136,4.44-1.704,7.033-1.704
			c2.527,0,4.815,0.544,6.863,1.632s3.656,2.648,4.824,4.68c1.168,2.033,1.752,4.393,1.752,7.08
			C327.232,64.332,327.183,65.004,327.087,66.252z M309.568,57.948c-1.152,0.959-1.856,2.271-2.112,3.936h12.719
			c-0.256-1.632-0.959-2.936-2.111-3.912c-1.152-0.976-2.561-1.464-4.225-1.464C312.144,56.508,310.72,56.987,309.568,57.948z"/>
		<path fill="#FFFFFF" stroke="#000000" d="M397.119,43.452l-10.992,33.6h-8.352L370.383,54.3l-7.632,22.752h-8.305l-11.039-33.6
			h8.063l7.584,23.615l7.92-23.615h7.2l7.68,23.808l7.824-23.808H397.119z"/>
		<path fill="#FFFFFF" stroke="#000000" d="M418.624,53.7c2.144,1.904,3.216,4.775,3.216,8.615v14.736h-7.008v-3.216
			c-1.408,2.399-4.032,3.6-7.872,3.6c-1.983,0-3.704-0.336-5.159-1.008c-1.457-0.672-2.568-1.6-3.337-2.784
			c-0.769-1.184-1.151-2.527-1.151-4.031c0-2.4,0.903-4.289,2.711-5.664c1.809-1.377,4.601-2.064,8.377-2.064h5.951
			c0-1.632-0.496-2.889-1.488-3.768c-0.992-0.881-2.479-1.32-4.463-1.32c-1.377,0-2.729,0.217-4.057,0.648s-2.456,1.016-3.384,1.752
			l-2.688-5.232c1.408-0.992,3.097-1.76,5.064-2.305c1.968-0.543,3.992-0.815,6.072-0.815
			C413.408,50.844,416.48,51.796,418.624,53.7z M412.24,71.508c0.992-0.592,1.695-1.464,2.111-2.616v-2.64h-5.135
			c-3.072,0-4.609,1.009-4.609,3.024c0,0.959,0.377,1.72,1.129,2.279c0.752,0.561,1.783,0.84,3.096,0.84
			C410.111,72.396,411.248,72.101,412.24,71.508z"/>
		<path fill="#FFFFFF" stroke="#000000" d="M428.607,41.436h7.488v35.616h-7.488V41.436z"/>
		<path fill="#FFFFFF" stroke="#000000" d="M454.142,66.924l-3.6,3.552v6.576h-7.488V41.436h7.488v20.16l10.943-10.368h8.928
			l-10.752,10.944l11.713,14.88h-9.072L454.142,66.924z"/>
	</g>
	<g>
		<path fill="#FFFFFF" stroke="#000000" d="M100.432,129.036c-0.78-2.879-1.17-5.963-1.17-9.252c0-3.287,0.39-6.377,1.17-9.27
			c0.78-2.893,1.89-5.418,3.33-7.578h5.364c-1.512,2.664-2.616,5.37-3.312,8.118c-0.696,2.748-1.044,5.657-1.044,8.729
			s0.348,5.982,1.044,8.73c0.696,2.748,1.8,5.453,3.312,8.117h-5.364C102.322,134.448,101.212,131.916,100.432,129.036z"/>
		<path fill="#FFFFFF" stroke="#000000" d="M115.804,128.659c-1.62-0.853-2.886-2.035-3.798-3.547s-1.368-3.229-1.368-5.148
			s0.456-3.635,1.368-5.147c0.912-1.512,2.178-2.694,3.798-3.546s3.45-1.277,5.49-1.277s3.864,0.426,5.472,1.277
			s2.868,2.034,3.78,3.546c0.912,1.513,1.368,3.228,1.368,5.147s-0.456,3.637-1.368,5.148s-2.172,2.694-3.78,3.547
			c-1.608,0.852-3.432,1.277-5.472,1.277S117.424,129.511,115.804,128.659z M124.84,123.87c0.924-0.971,1.386-2.273,1.386-3.906
			c0-1.631-0.462-2.934-1.386-3.905c-0.924-0.972-2.106-1.458-3.546-1.458c-1.44,0-2.628,0.486-3.564,1.458
			s-1.404,2.274-1.404,3.905c0,1.633,0.468,2.936,1.404,3.906c0.936,0.973,2.124,1.459,3.564,1.459
			C122.733,125.329,123.916,124.843,124.84,123.87z"/>
		<path fill="#FFFFFF" stroke="#000000" d="M143.74,110.713c1.14-0.479,2.454-0.72,3.942-0.72v5.184
			c-0.624-0.049-1.044-0.072-1.26-0.072c-1.608,0-2.868,0.45-3.78,1.35c-0.912,0.9-1.368,2.25-1.368,4.051v9.144h-5.616V110.28
			h5.364v2.557C141.694,111.901,142.6,111.192,143.74,110.713z"/>
		<path fill="#FFFFFF" stroke="#000000" d="M166.438,109.849c0.336,0.528,0.504,1.152,0.504,1.871c0,1.033-0.324,1.867-0.972,2.503
			s-1.476,0.954-2.484,0.954s-1.842-0.324-2.502-0.973c-0.66-0.647-0.99-1.476-0.99-2.484c0-0.479,0.06-0.959,0.18-1.439
			c0.12-0.479,0.384-1.199,0.792-2.16l2.088-5.184h3.564l-1.584,5.725C165.633,108.925,166.102,109.321,166.438,109.849z"/>
		<path fill="#FFFFFF" stroke="#000000" d="M174.195,128.659c-1.62-0.853-2.886-2.035-3.798-3.547s-1.368-3.229-1.368-5.148
			s0.456-3.635,1.368-5.147c0.912-1.512,2.178-2.694,3.798-3.546s3.45-1.277,5.49-1.277s3.864,0.426,5.472,1.277
			s2.868,2.034,3.78,3.546c0.912,1.513,1.368,3.228,1.368,5.147s-0.456,3.637-1.368,5.148s-2.172,2.694-3.78,3.547
			c-1.608,0.852-3.432,1.277-5.472,1.277S175.815,129.511,174.195,128.659z M183.231,123.87c0.924-0.971,1.386-2.273,1.386-3.906
			c0-1.631-0.462-2.934-1.386-3.905c-0.924-0.972-2.106-1.458-3.546-1.458c-1.44,0-2.628,0.486-3.564,1.458
			s-1.404,2.274-1.404,3.905c0,1.633,0.468,2.936,1.404,3.906c0.936,0.973,2.124,1.459,3.564,1.459
			C181.125,125.329,182.307,124.843,183.231,123.87z"/>
		<path fill="#FFFFFF" stroke="#000000" d="M224.613,110.28l-7.02,19.368h-5.4l-4.356-12.024l-4.5,12.024h-5.4l-6.984-19.368h5.292
			l4.572,13.104l4.752-13.104h4.752l4.608,13.104l4.716-13.104H224.613z"/>
		<path fill="#FFFFFF" stroke="#000000" d="M249.921,128.712c-0.552,0.408-1.23,0.715-2.034,0.918
			c-0.804,0.205-1.65,0.307-2.538,0.307c-2.304,0-4.086-0.588-5.346-1.764c-1.26-1.176-1.89-2.904-1.89-5.185v-7.956h-2.988v-4.32
			h2.988v-4.715h5.616v4.715h4.824v4.32h-4.824v7.885c0,0.816,0.21,1.445,0.63,1.89s1.014,0.666,1.782,0.666
			c0.888,0,1.644-0.239,2.268-0.72L249.921,128.712z"/>
		<path fill="#FFFFFF" stroke="#000000" d="M256.203,128.659c-1.62-0.853-2.886-2.035-3.798-3.547s-1.368-3.229-1.368-5.148
			s0.456-3.635,1.368-5.147c0.912-1.512,2.178-2.694,3.798-3.546s3.45-1.277,5.49-1.277s3.864,0.426,5.472,1.277
			s2.868,2.034,3.78,3.546c0.912,1.513,1.368,3.228,1.368,5.147s-0.456,3.637-1.368,5.148s-2.172,2.694-3.78,3.547
			c-1.608,0.852-3.432,1.277-5.472,1.277S257.823,129.511,256.203,128.659z M265.239,123.87c0.924-0.971,1.386-2.273,1.386-3.906
			c0-1.631-0.462-2.934-1.386-3.905c-0.924-0.972-2.106-1.458-3.546-1.458c-1.44,0-2.628,0.486-3.564,1.458
			s-1.404,2.274-1.404,3.905c0,1.633,0.468,2.936,1.404,3.906c0.936,0.973,2.124,1.459,3.564,1.459
			C263.133,125.329,264.315,124.843,265.239,123.87z"/>
		<path fill="#FFFFFF" stroke="#000000" d="M300.969,112.135c1.608,1.428,2.412,3.582,2.412,6.462v11.052h-5.256v-2.412
			c-1.056,1.8-3.024,2.7-5.904,2.7c-1.488,0-2.778-0.252-3.87-0.756s-1.926-1.2-2.502-2.088c-0.576-0.889-0.864-1.896-0.864-3.024
			c0-1.8,0.678-3.216,2.034-4.247c1.356-1.033,3.45-1.549,6.282-1.549h4.464c0-1.224-0.372-2.166-1.116-2.826s-1.86-0.99-3.348-0.99
			c-1.032,0-2.046,0.162-3.042,0.486s-1.842,0.762-2.538,1.314l-2.016-3.924c1.056-0.744,2.322-1.32,3.798-1.729
			c1.476-0.408,2.994-0.611,4.554-0.611C297.057,109.993,299.36,110.707,300.969,112.135z M296.181,125.49
			c0.744-0.444,1.272-1.098,1.584-1.962v-1.98h-3.852c-2.304,0-3.456,0.757-3.456,2.269c0,0.72,0.282,1.29,0.846,1.71
			s1.338,0.63,2.322,0.63C294.585,126.156,295.437,125.935,296.181,125.49z"/>
		<path fill="#FFFFFF" stroke="#000000" d="M312.47,128.659c-1.644-0.853-2.928-2.035-3.852-3.547s-1.386-3.229-1.386-5.148
			s0.462-3.635,1.386-5.147c0.924-1.512,2.208-2.694,3.852-3.546s3.499-1.277,5.563-1.277c2.039,0,3.821,0.426,5.346,1.277
			c1.523,0.852,2.633,2.07,3.33,3.654l-4.356,2.34c-1.009-1.775-2.46-2.664-4.356-2.664c-1.463,0-2.676,0.48-3.636,1.439
			c-0.96,0.961-1.44,2.269-1.44,3.924c0,1.656,0.48,2.965,1.44,3.925s2.173,1.44,3.636,1.44c1.92,0,3.372-0.889,4.356-2.664
			l4.356,2.375c-0.697,1.537-1.807,2.736-3.33,3.601c-1.524,0.864-3.307,1.296-5.346,1.296
			C315.968,129.937,314.114,129.511,312.47,128.659z"/>
		<path fill="#FFFFFF" stroke="#000000" d="M342.728,128.712c-0.553,0.408-1.23,0.715-2.035,0.918
			c-0.803,0.205-1.649,0.307-2.537,0.307c-2.305,0-4.086-0.588-5.346-1.764c-1.261-1.176-1.891-2.904-1.891-5.185v-7.956h-2.988
			v-4.32h2.988v-4.715h5.616v4.715h4.823v4.32h-4.823v7.885c0,0.816,0.21,1.445,0.63,1.89s1.014,0.666,1.782,0.666
			c0.888,0,1.644-0.239,2.268-0.72L342.728,128.712z"/>
		<path fill="#FFFFFF" stroke="#000000" d="M372.445,111.235c1.476,0.828,2.634,1.991,3.474,3.491s1.261,3.246,1.261,5.237
			c0,1.992-0.421,3.738-1.261,5.238s-1.998,2.664-3.474,3.492c-1.477,0.828-3.114,1.242-4.914,1.242
			c-2.473,0-4.416-0.779-5.832-2.34v9.035h-5.616V110.28h5.364v2.232c1.392-1.68,3.42-2.52,6.084-2.52
			C369.331,109.993,370.968,110.407,372.445,111.235z M370.105,123.87c0.924-0.971,1.386-2.273,1.386-3.906
			c0-1.631-0.462-2.934-1.386-3.905s-2.106-1.458-3.547-1.458c-1.439,0-2.621,0.486-3.545,1.458s-1.387,2.274-1.387,3.905
			c0,1.633,0.463,2.936,1.387,3.906c0.924,0.973,2.105,1.459,3.545,1.459C367.999,125.329,369.181,124.843,370.105,123.87z"/>
		<path fill="#FFFFFF" stroke="#000000" d="M389.004,110.713c1.14-0.479,2.454-0.72,3.942-0.72v5.184
			c-0.624-0.049-1.045-0.072-1.26-0.072c-1.609,0-2.869,0.45-3.781,1.35c-0.912,0.9-1.367,2.25-1.367,4.051v9.144h-5.616V110.28
			h5.364v2.557C386.958,111.901,387.865,111.192,389.004,110.713z"/>
		<path fill="#FFFFFF" stroke="#000000" d="M399.841,128.659c-1.621-0.853-2.887-2.035-3.799-3.547s-1.367-3.229-1.367-5.148
			s0.455-3.635,1.367-5.147c0.912-1.512,2.178-2.694,3.799-3.546c1.619-0.852,3.449-1.277,5.49-1.277
			c2.039,0,3.863,0.426,5.471,1.277c1.608,0.852,2.869,2.034,3.781,3.546c0.912,1.513,1.367,3.228,1.367,5.147
			s-0.455,3.637-1.367,5.148s-2.173,2.694-3.781,3.547c-1.607,0.852-3.432,1.277-5.471,1.277
			C403.291,129.937,401.46,129.511,399.841,128.659z M408.876,123.87c0.924-0.971,1.387-2.273,1.387-3.906
			c0-1.631-0.463-2.934-1.387-3.905s-2.105-1.458-3.545-1.458c-1.441,0-2.629,0.486-3.564,1.458
			c-0.937,0.972-1.404,2.274-1.404,3.905c0,1.633,0.468,2.936,1.404,3.906c0.936,0.973,2.123,1.459,3.564,1.459
			C406.771,125.329,407.953,124.843,408.876,123.87z"/>
		<path fill="#FFFFFF" stroke="#000000" d="M436.057,111.235c1.476,0.828,2.634,1.991,3.474,3.491s1.26,3.246,1.26,5.237
			c0,1.992-0.42,3.738-1.26,5.238s-1.998,2.664-3.474,3.492s-3.114,1.242-4.914,1.242c-2.472,0-4.416-0.779-5.832-2.34v9.035h-5.616
			V110.28h5.364v2.232c1.392-1.68,3.42-2.52,6.084-2.52C432.943,109.993,434.582,110.407,436.057,111.235z M433.716,123.87
			c0.924-0.971,1.387-2.273,1.387-3.906c0-1.631-0.463-2.934-1.387-3.905s-2.105-1.458-3.545-1.458c-1.44,0-2.623,0.486-3.547,1.458
			s-1.385,2.274-1.385,3.905c0,1.633,0.461,2.936,1.385,3.906c0.924,0.973,2.106,1.459,3.547,1.459
			C431.611,125.329,432.792,124.843,433.716,123.87z"/>
		<path fill="#FFFFFF" stroke="#000000" d="M463.399,121.548h-14.651c0.264,1.201,0.887,2.148,1.871,2.845s2.208,1.044,3.672,1.044
			c1.008,0,1.902-0.15,2.682-0.449c0.781-0.301,1.507-0.774,2.179-1.423l2.987,3.239c-1.824,2.089-4.487,3.133-7.991,3.133
			c-2.185,0-4.116-0.426-5.796-1.277c-1.68-0.853-2.977-2.035-3.889-3.547s-1.367-3.229-1.367-5.148c0-1.895,0.449-3.605,1.35-5.129
			c0.9-1.524,2.136-2.713,3.708-3.564c1.571-0.852,3.329-1.277,5.274-1.277c1.896,0,3.611,0.408,5.147,1.224s2.742,1.985,3.618,3.51
			s1.314,3.294,1.314,5.31C463.507,120.108,463.47,120.612,463.399,121.548z M450.259,115.32c-0.865,0.72-1.393,1.704-1.584,2.952
			h9.539c-0.191-1.224-0.72-2.201-1.584-2.934c-0.863-0.732-1.92-1.099-3.168-1.099C452.191,114.24,451.123,114.601,450.259,115.32z
			"/>
		<path fill="#FFFFFF" stroke="#000000" d="M475.333,110.713c1.14-0.479,2.454-0.72,3.942-0.72v5.184
			c-0.624-0.049-1.045-0.072-1.26-0.072c-1.609,0-2.869,0.45-3.781,1.35c-0.912,0.9-1.367,2.25-1.367,4.051v9.144h-5.616V110.28
			h5.364v2.557C473.287,111.901,474.193,111.192,475.333,110.713z"/>
		<path fill="#FFFFFF" stroke="#000000" d="M480.355,136.632c1.512-2.664,2.621-5.369,3.33-8.117
			c0.707-2.748,1.062-5.658,1.062-8.73s-0.354-5.981-1.062-8.729c-0.709-2.748-1.818-5.454-3.33-8.118h5.363
			c1.465,2.137,2.586,4.65,3.366,7.542s1.17,5.994,1.17,9.306c0,3.313-0.384,6.402-1.151,9.271
			c-0.769,2.868-1.896,5.394-3.385,7.577H480.355z"/>
	</g>
</g>
</svg>
