<?xml version="1.0" encoding="utf-8"?>
<!-- Generator: Adobe Illustrator 12.0.0, SVG Export Plug-In . SVG Version: 6.00 Build 51448)  -->
<!DOCTYPE svg PUBLIC "-//W3C//DTD SVG 1.1//EN" "http://www.w3.org/Graphics/SVG/1.1/DTD/svg11.dtd" [
	<!ENTITY ns_svg "http://www.w3.org/2000/svg">
	<!ENTITY ns_xlink "http://www.w3.org/1999/xlink">
]>
<svg  version="1.1" xmlns="&ns_svg;" xmlns:xlink="&ns_xlink;" width="589.449" height="187" viewBox="0 0 589.449 187"
	 overflow="visible" enable-background="new 0 0 589.449 187" xml:space="preserve">
<g id="Layer_1">
	<g>
		<polygon fill="#C69E38" stroke="#543810" points="587.449,55.833 579.725,73.167 586.392,89.833 580.782,148.501 587.449,185 
			2,185 2,148.5 15.058,139.167 2,121.167 8.392,55.833 2,37.833 2,2 587.449,2 		"/>
		<line fill="#845919" stroke="#664414" x1="2" y1="37.833" x2="587.059" y2="37.833"/>
		<line fill="#845919" stroke="#664414" x1="586.392" y1="89.833" x2="5.725" y2="89.833"/>
		<line fill="#845919" stroke="#664414" x1="15.058" y1="139.167" x2="581.725" y2="139.167"/>
	</g>
</g>
<g id="wood">
	<rect x="2" y="2" fill="#9E6730" stroke="#442D17" stroke-width="4" width="585.449" height="183"/>
</g>
<g id="lines">
	<path fill-rule="evenodd" clip-rule="evenodd" d="M64.725,4c-12.654,1.79-30.655,1-48,1c-3.964,0-15.387,0.613-16,0
		c0.967,0.967,27.373-1,32-1C46.268,4,54.074,4,64.725,4z"/>
	<path fill-rule="evenodd" clip-rule="evenodd" d="M298.725,4c-3.361-2.176-34.068,5.932-39,1c1.589,1.589,15.305-1,19-1
		C286.744,4,292.552,4,298.725,4z"/>
	<path fill-rule="evenodd" clip-rule="evenodd" d="M318.725,5c6.011-2.323,16.325-0.341,24-1c8.333,0,16.667,0,25,0
		c24.313,0.528,49.836-0.7,75,0c25.063,0.697,56.877,1.074,74,1C452.471,7.055,385.425,3.779,318.725,5z"/>
	<path fill-rule="evenodd" clip-rule="evenodd" d="M549.725,4c-6.89-0.764-21.264,4.736-25,1C526.76,7.036,545.029,1.429,549.725,4z
		"/>
	<path fill-rule="evenodd" clip-rule="evenodd" d="M562.725,5c5.678-2.322,15.658-0.342,23-1C580.047,6.322,570.066,4.342,562.725,5
		z"/>
	<path fill-rule="evenodd" clip-rule="evenodd" d="M182.725,10c32.322-4.097,71.24-0.766,105,0
		C251.595,10.912,217.377,7.611,182.725,10z"/>
	<path fill-rule="evenodd" clip-rule="evenodd" d="M16.725,9c-7.645,2.412-24.36,0.218-8,0C11.828,8.958,13.941,9.031,16.725,9z"/>
	<path fill-rule="evenodd" clip-rule="evenodd" d="M316.725,9c-8.781,2.409-28.09,0.238-10,0C310.083,8.956,313.765,9.034,316.725,9
		z"/>
	<path fill-rule="evenodd" clip-rule="evenodd" d="M480.725,11c-6.502-0.563-19.517,4.483-23,1
		C459.432,13.707,476.35,8.679,480.725,11z"/>
	<path fill-rule="evenodd" clip-rule="evenodd" d="M494.725,11C485.159,13.95,481.377,9.843,494.725,11L494.725,11z"/>
	<path fill-rule="evenodd" clip-rule="evenodd" d="M259.725,15c-17.505-0.164-44.975,0.978-64-1
		C216.961,14.43,240.062,12.996,259.725,15z"/>
	<path fill-rule="evenodd" clip-rule="evenodd" d="M13.725,15c4.333,0,8.667,0,13,0c-4.234,1.524-14.969,1.345-20,1
		C-3.324,15.311,4.546,14.857,13.725,15z"/>
	<path fill-rule="evenodd" clip-rule="evenodd" d="M179.725,16c2.367-2.3,8.975-0.358,13-1C190.358,17.3,183.75,15.358,179.725,16z"
		/>
	<path fill-rule="evenodd" clip-rule="evenodd" d="M573.725,16c2.366-2.3,8.976-0.358,13-1C584.358,17.3,577.749,15.358,573.725,16z
		"/>
	<path fill-rule="evenodd" clip-rule="evenodd" d="M287.725,21c1.727-2.954,29.919,2.542,6,0
		C291.809,20.797,289.919,21.144,287.725,21z"/>
	<path fill-rule="evenodd" clip-rule="evenodd" d="M325.725,21C314.621,24.059,312.354,19.771,325.725,21L325.725,21z"/>
	<path fill-rule="evenodd" clip-rule="evenodd" d="M54.725,23c-6.797,2.398-21.363,0.232-7,0C50.362,22.957,52.38,23.032,54.725,23z
		"/>
	<path fill-rule="evenodd" clip-rule="evenodd" d="M527.725,23c-6.89-0.764-21.264,4.736-25,1
		C504.76,26.035,523.029,20.429,527.725,23z"/>
	<path fill-rule="evenodd" clip-rule="evenodd" d="M329.725,28c5.678-2.322,15.658-0.342,23-1
		C347.047,29.322,337.066,27.342,329.725,28z"/>
	<path fill-rule="evenodd" clip-rule="evenodd" d="M353.725,28c2.038-2.295,8.305-0.362,12-1
		C363.687,29.295,357.42,27.362,353.725,28z"/>
	<path fill-rule="evenodd" clip-rule="evenodd" d="M557.725,28c7.674-2.326,19.661-0.339,29-1
		C579.051,29.326,567.063,27.339,557.725,28z"/>
	<path fill-rule="evenodd" clip-rule="evenodd" d="M415.725,29c7.009-2.325,18.327-0.34,27-1c9.333,0,18.667,0,28,0
		c18.333,0,36.667,0,55,0C491.058,30.333,452.059,28.334,415.725,29z"/>
	<path fill-rule="evenodd" clip-rule="evenodd" d="M537.725,29c1.387-2.28,6.961-0.373,10-1
		C546.338,30.28,540.764,28.373,537.725,29z"/>
	<path fill-rule="evenodd" clip-rule="evenodd" d="M572.725,32c4.667,0,9.333,0,14,0c-4.263,1.522-13.954,1.344-20,1
		C556.544,32.421,561.833,31.913,572.725,32z"/>
	<path fill-rule="evenodd" clip-rule="evenodd" d="M515.725,33c-2.295-1.008-25.543,4.457-29,1
		C489.321,36.597,510.333,30.007,515.725,33z"/>
	<path fill-rule="evenodd" clip-rule="evenodd" d="M549.725,33c-9.553,2.421-29.63,0.186-10,0
		C543.288,32.966,546.8,33.026,549.725,33z"/>
	<path fill-rule="evenodd" clip-rule="evenodd" d="M337.725,39c3.356-2.311,10.983-0.351,16-1c5.667,0,11.333,0,17,0
		C361.719,40.327,348.396,38.338,337.725,39z"/>
	<path fill-rule="evenodd" clip-rule="evenodd" d="M379.725,39c4.35-2.316,12.987-0.346,19-1
		C394.375,40.316,385.737,38.346,379.725,39z"/>
	<path fill-rule="evenodd" clip-rule="evenodd" d="M464.725,38c-7.653,1.776-16.599,1-28,1c-6.681,0-25.767,3.233-29,0
		c0.723,0.723,23.972-1,28-1C447.5,38,455.341,38,464.725,38z"/>
	<path fill-rule="evenodd" clip-rule="evenodd" d="M585.725,38c-23.821,1.802-53.967,1-83,1c-5.976,0-26.302,1.698-28,0
		c1.096,1.096,22.629-1,27-1C529.446,38,559.252,38,585.725,38z"/>
	<path fill-rule="evenodd" clip-rule="evenodd" d="M310.725,44c26.689-0.649,61.398,0,95,0c10.294,0,25.362-2.533,33,0
		c-5.858-1.943-20.3,1-30,1C376.313,45,342.307,45.315,310.725,44z"/>
	<path fill-rule="evenodd" clip-rule="evenodd" d="M449.725,44c6.343-2.323,16.992-0.341,25-1
		C468.382,45.323,457.732,43.341,449.725,44z"/>
	<path fill-rule="evenodd" clip-rule="evenodd" d="M503.725,43c10.313-2.698,29.021,3.283,34,2c-12.523,3.228-33.139-4.307-51-1
		C486.614,41.856,498.896,43.528,503.725,43z"/>
	<path fill-rule="evenodd" clip-rule="evenodd" d="M542.725,45c5.014-2.319,14.323-0.344,21-1c7.333,0,14.667,0,22,0
		C573.388,46.33,556.728,44.336,542.725,45z"/>
	<path fill-rule="evenodd" clip-rule="evenodd" d="M83.725,45c-3.016-1.913-32.406,5.594-37,1c1.507,1.507,14.386-1,18-1
		C72.323,45,77.907,45,83.725,45z"/>
	<path fill-rule="evenodd" clip-rule="evenodd" d="M220.725,46c4.018-2.315,12.32-0.347,18-1
		C234.707,47.315,226.405,45.347,220.725,46z"/>
	<path fill-rule="evenodd" clip-rule="evenodd" d="M122.725,47c-6.889-0.764-21.264,4.736-25,1
		C99.76,50.035,118.029,44.429,122.725,47z"/>
	<path fill-rule="evenodd" clip-rule="evenodd" d="M14.725,50c6.343-2.323,16.993-0.341,25-1C33.381,51.323,22.732,49.341,14.725,50
		z"/>
	<path fill-rule="evenodd" clip-rule="evenodd" d="M326.725,50c2.038-2.295,8.305-0.362,12-1
		C336.687,51.295,330.42,49.362,326.725,50z"/>
	<path fill-rule="evenodd" clip-rule="evenodd" d="M363.725,50c8,0,16,0,24,0c-8.306,1.617-25.007,1.211-35,1
		c-4.827-0.102-16.587-0.195-7-1C349.256,49.703,356.495,50.21,363.725,50z"/>
	<path fill-rule="evenodd" clip-rule="evenodd" d="M565.725,51c5.014-2.319,14.323-0.344,21-1
		C581.711,52.319,572.401,50.344,565.725,51z"/>
	<path fill-rule="evenodd" clip-rule="evenodd" d="M64.725,54c-7.645,2.412-24.36,0.218-8,0C59.828,53.959,61.941,54.031,64.725,54z
		"/>
	<path fill-rule="evenodd" clip-rule="evenodd" d="M423.725,55c0.574,1.292-7.823,2.139-12,2
		C414.854,55.462,419.116,55.059,423.725,55z"/>
	<path fill-rule="evenodd" clip-rule="evenodd" d="M372.725,57c4.019-2.315,12.319-0.347,18-1
		C386.706,58.315,378.405,56.347,372.725,57z"/>
	<path fill-rule="evenodd" clip-rule="evenodd" d="M455.725,58C443.263,61.063,441.152,56.831,455.725,58L455.725,58z"/>
	<path fill-rule="evenodd" clip-rule="evenodd" d="M561.725,62c5.346-2.321,14.99-0.343,22-1
		C578.379,63.321,568.734,61.343,561.725,62z"/>
	<path fill-rule="evenodd" clip-rule="evenodd" d="M445.725,65c6.011-2.322,16.325-0.341,24-1
		C463.714,66.322,453.399,64.341,445.725,65z"/>
	<path fill-rule="evenodd" clip-rule="evenodd" d="M160.725,67c-11.183,4.852-28.524,0.335-42,1
		C127.086,65.156,148.331,70.393,160.725,67z"/>
	<path fill-rule="evenodd" clip-rule="evenodd" d="M370.725,69c-29.51-3.371-61.896,2.195-91-1
		C309.771,69.289,346.749,64.097,370.725,69z"/>
	<path fill-rule="evenodd" clip-rule="evenodd" d="M565.725,68c5.014-2.319,14.323-0.344,21-1
		C581.711,69.319,572.401,67.344,565.725,68z"/>
	<path fill-rule="evenodd" clip-rule="evenodd" d="M207.725,72c-8.756,2.408-26.63,0.197-9,0
		C202.068,71.963,204.657,72.028,207.725,72z"/>
	<path fill-rule="evenodd" clip-rule="evenodd" d="M224.725,74c2.039-2.295,8.305-0.362,12-1
		C234.686,75.295,228.42,73.362,224.725,74z"/>
	<path fill-rule="evenodd" clip-rule="evenodd" d="M67.725,77c4.018-2.315,12.32-0.347,18-1C81.707,78.315,73.405,76.347,67.725,77z
		"/>
	<path fill-rule="evenodd" clip-rule="evenodd" d="M7.725,80c1.386-2.28,6.96-0.373,10-1C16.338,81.28,10.764,79.373,7.725,80z"/>
	<path fill-rule="evenodd" clip-rule="evenodd" d="M61.725,84c4.018-2.315,12.32-0.347,18-1C75.707,85.315,67.405,83.347,61.725,84z
		"/>
	<path fill-rule="evenodd" clip-rule="evenodd" d="M81.725,84c4.682-2.318,13.655-0.345,20-1C97.043,85.318,88.069,83.345,81.725,84
		z"/>
	<path fill-rule="evenodd" clip-rule="evenodd" d="M5.725,85c5.014-2.319,14.323-0.344,21-1c7.333,0,14.667,0,22,0
		C36.388,86.33,19.727,84.336,5.725,85z"/>
	<path fill-rule="evenodd" clip-rule="evenodd" d="M177.725,84c-1.406,3.927-9.483,1.184-14,2
		C159.303,83.832,175.591,86.168,177.725,84z"/>
	<path fill-rule="evenodd" clip-rule="evenodd" d="M210.725,86c-3.941-4.22-25.638,3.362-30-1
		C182.167,86.442,210.372,81.103,210.725,86z"/>
	<path fill-rule="evenodd" clip-rule="evenodd" d="M340.725,86c5.169-3.153,17.286-2.282,6-1
		C344.653,85.235,344.297,86.364,340.725,86z"/>
	<path fill-rule="evenodd" clip-rule="evenodd" d="M582.725,84c-6.502-0.563-19.517,4.483-23,1
		C561.432,86.707,578.35,81.679,582.725,84z"/>
	<path fill-rule="evenodd" clip-rule="evenodd" d="M127.725,86c3.356-2.311,10.983-0.351,16-1c5.667,0,11.333,0,17,0
		C151.719,87.327,138.396,85.338,127.725,86z"/>
	<path fill-rule="evenodd" clip-rule="evenodd" d="M394.725,86c5.014-2.319,14.323-0.344,21-1
		C410.711,87.319,401.401,85.344,394.725,86z"/>
	<path fill-rule="evenodd" clip-rule="evenodd" d="M63.725,90c2.367-2.3,8.975-0.358,13-1c4.333,0,8.667,0,13,0
		C83.049,91.324,72.065,89.34,63.725,90z"/>
	<path fill-rule="evenodd" clip-rule="evenodd" d="M555.725,91c6.343-2.323,16.992-0.341,25-1
		C574.382,92.323,563.732,90.341,555.725,91z"/>
	<path fill-rule="evenodd" clip-rule="evenodd" d="M1.725,97c5.678-2.322,15.658-0.342,23-1C19.046,98.322,9.066,96.342,1.725,97z"
		/>
	<path fill-rule="evenodd" clip-rule="evenodd" d="M36.725,97c3.687-2.313,11.651-0.349,17-1C50.038,98.313,42.073,96.349,36.725,97
		z"/>
	<path fill-rule="evenodd" clip-rule="evenodd" d="M488.725,101c6.343-2.323,16.992-0.341,25-1
		C507.382,102.323,496.732,100.341,488.725,101z"/>
	<path fill-rule="evenodd" clip-rule="evenodd" d="M385.725,102c2.688,0.845-7.188,1.773-12,2c-5.591,0.263-12.094,0.576-15-1
		C368.831,103.772,376.061,101.669,385.725,102z"/>
	<path fill-rule="evenodd" clip-rule="evenodd" d="M399.725,103c3.687-2.313,11.651-0.349,17-1c6,0,12,0,18,0
		C425.053,104.328,411.062,102.337,399.725,103z"/>
	<path fill-rule="evenodd" clip-rule="evenodd" d="M549.725,103c4.019-2.315,12.319-0.347,18-1c6.333,0,12.667,0,19,0
		C576.387,104.329,561.729,102.337,549.725,103z"/>
	<path fill-rule="evenodd" clip-rule="evenodd" d="M0.725,108c6.343-2.323,16.993-0.341,25-1
		C19.381,109.323,8.732,107.341,0.725,108z"/>
	<path fill-rule="evenodd" clip-rule="evenodd" d="M235.725,111c2.696-2.305,9.645-0.355,14-1c4.667,0,9.334,0,14,0
		C256.383,112.325,244.73,110.339,235.725,111z"/>
	<path fill-rule="evenodd" clip-rule="evenodd" d="M521.725,114c5.678-2.322,15.658-0.342,23-1c7.667,0,15.333,0,23,0
		C554.389,115.33,536.727,113.336,521.725,114z"/>
	<path fill-rule="evenodd" clip-rule="evenodd" d="M568.725,114c3.687-2.313,11.651-0.349,17-1
		C582.038,115.313,574.073,113.349,568.725,114z"/>
	<path fill-rule="evenodd" clip-rule="evenodd" d="M243.725,116c4.682-2.318,13.655-0.345,20-1c6.666,0,13.334,0,20,0
		C272.387,117.329,256.728,115.336,243.725,116z"/>
	<path fill-rule="evenodd" clip-rule="evenodd" d="M0.725,120c4.682-2.318,13.655-0.345,20-1
		C16.043,121.318,7.069,119.345,0.725,120z"/>
	<path fill-rule="evenodd" clip-rule="evenodd" d="M209.725,120c4.774-2.299,22.606-0.711,30,1
		C229.102,121.289,220.825,119.233,209.725,120z"/>
	<path fill-rule="evenodd" clip-rule="evenodd" d="M519.725,120c3.356-2.311,10.983-0.351,16-1c5.667,0,11.333,0,17,0
		c11,0,22,0,33,0C565.723,121.332,541.393,119.334,519.725,120z"/>
	<path fill-rule="evenodd" clip-rule="evenodd" d="M245.725,121c7.674-2.326,19.661-0.339,29-1
		C267.051,122.326,255.063,120.339,245.725,121z"/>
	<path fill-rule="evenodd" clip-rule="evenodd" d="M325.725,121c6.343-2.323,16.992-0.341,25-1
		C344.382,122.323,333.732,120.341,325.725,121z"/>
	<path fill-rule="evenodd" clip-rule="evenodd" d="M355.725,121c4.682-2.318,13.655-0.345,20-1
		C371.043,122.318,362.069,120.345,355.725,121z"/>
	<path fill-rule="evenodd" clip-rule="evenodd" d="M376.725,121c4.019-2.315,12.319-0.347,18-1
		C390.706,122.315,382.405,120.347,376.725,121z"/>
	<path fill-rule="evenodd" clip-rule="evenodd" d="M280.725,122c4.682-2.318,13.655-0.345,20-1
		C296.043,123.318,287.069,121.345,280.725,122z"/>
	<path fill-rule="evenodd" clip-rule="evenodd" d="M304.725,122c2.039-2.295,8.305-0.362,12-1
		C314.686,123.295,308.42,121.362,304.725,122z"/>
	<path fill-rule="evenodd" clip-rule="evenodd" d="M313.725,126c3.687-2.313,11.651-0.349,17-1c5.667,0,11.333,0,17,0
		C338.386,127.328,324.729,125.338,313.725,126z"/>
	<path fill-rule="evenodd" clip-rule="evenodd" d="M371.725,126c15.002-2.331,34.331-0.335,51-1
		C407.722,127.331,388.394,125.335,371.725,126z"/>
	<path fill-rule="evenodd" clip-rule="evenodd" d="M494.725,127c16.664-4.338,49.762-0.903,73-2
		C549.579,127.856,516.248,124.188,494.725,127z"/>
	<path fill-rule="evenodd" clip-rule="evenodd" d="M268.725,130c7.674-2.326,19.661-0.339,29-1c9.666,0,19.333,0,29,0
		C309.389,131.331,287.727,129.335,268.725,130z"/>
	<path fill-rule="evenodd" clip-rule="evenodd" d="M0.725,132c2.039-2.295,8.305-0.362,12-1C10.686,133.295,4.42,131.362,0.725,132z
		"/>
	<path fill-rule="evenodd" clip-rule="evenodd" d="M430.725,131C421.159,133.95,417.377,129.843,430.725,131L430.725,131z"/>
	<path fill-rule="evenodd" clip-rule="evenodd" d="M527.725,132c3.025-2.308,10.314-0.353,15-1c5.333,0,10.667,0,16,0
		C550.385,133.327,537.729,131.338,527.725,132z"/>
	<path fill-rule="evenodd" clip-rule="evenodd" d="M92.725,139c6.343-2.323,16.993-0.341,25-1c8.667,0,17.333,0,26,0
		C128.722,140.331,109.393,138.335,92.725,139z"/>
	<path fill-rule="evenodd" clip-rule="evenodd" d="M307.725,142c8.673-2.327,21.662-0.338,32-1
		C331.052,143.327,318.063,141.338,307.725,142z"/>
	<path fill-rule="evenodd" clip-rule="evenodd" d="M340.725,142c4.682-2.318,13.655-0.345,20-1c7,0,14,0,21,0
		C370.054,143.33,354.061,141.336,340.725,142z"/>
	<path fill-rule="evenodd" clip-rule="evenodd" d="M424.725,142c4.686,0.647,11.975-1.308,15,1c-12.587,0.252-23.072-1-38-1
		c-2.722,0-15.353,0.647-16,0C387.973,144.248,421.54,137.316,424.725,142z"/>
	<path fill-rule="evenodd" clip-rule="evenodd" d="M486.725,143c6.343-2.323,16.992-0.341,25-1c8.333,0,16.667,0,25,0
		c16.667,0,33.333,0,50,0C555.391,144.333,519.725,142.334,486.725,143z"/>
	<path fill-rule="evenodd" clip-rule="evenodd" d="M0.725,149c5.014-2.319,14.323-0.344,21-1
		C16.711,150.319,7.401,148.344,0.725,149z"/>
	<path fill-rule="evenodd" clip-rule="evenodd" d="M554.725,148c5.667,0,11.333,0,17,0c-5.367,1.531-18.412,1.313-25,1
		C533.827,148.389,543.444,147.833,554.725,148z"/>
	<path fill-rule="evenodd" clip-rule="evenodd" d="M573.725,149c2.038-2.295,8.305-0.362,12-1
		C583.687,150.295,577.42,148.362,573.725,149z"/>
	<path fill-rule="evenodd" clip-rule="evenodd" d="M96.725,152c1.386-2.28,6.96-0.373,10-1
		C105.338,153.28,99.764,151.373,96.725,152z"/>
	<path fill-rule="evenodd" clip-rule="evenodd" d="M107.725,152c2.696-2.305,9.645-0.355,14-1c4.667,0,9.333,0,14,0
		C128.383,153.325,116.73,151.339,107.725,152z"/>
	<path fill-rule="evenodd" clip-rule="evenodd" d="M276.725,153c2.695-2.305,9.645-0.355,14-1
		C288.029,154.305,281.08,152.355,276.725,153z"/>
	<path fill-rule="evenodd" clip-rule="evenodd" d="M368.725,152c-16.231,1.773-46.668,3.327-67,1
		C325.014,153.622,346.249,152.19,368.725,152z"/>
	<path fill-rule="evenodd" clip-rule="evenodd" d="M386.725,152c-6.612,2.369-23.032,0.301-8,0
		C381.367,151.947,384.168,152.04,386.725,152z"/>
	<path fill-rule="evenodd" clip-rule="evenodd" d="M6.725,155c3.356-2.311,10.983-0.351,16-1
		C19.369,156.311,11.742,154.351,6.725,155z"/>
	<path fill-rule="evenodd" clip-rule="evenodd" d="M26.725,155c3.356-2.311,10.983-0.351,16-1
		C39.369,156.311,31.742,154.351,26.725,155z"/>
	<path fill-rule="evenodd" clip-rule="evenodd" d="M520.725,155c3.356-2.311,10.983-0.351,16-1c5.333,0,10.667,0,16,0
		c11,0,22,0,33,0C566.057,156.332,542.059,154.334,520.725,155z"/>
	<path fill-rule="evenodd" clip-rule="evenodd" d="M48.725,156c3.356-2.311,10.983-0.351,16-1
		C61.369,157.311,53.742,155.351,48.725,156z"/>
	<path fill-rule="evenodd" clip-rule="evenodd" d="M284.725,160c-7.988,3.228-29.522-5.478-33-2
		C255.947,153.777,279.463,161,284.725,160z"/>
	<path fill-rule="evenodd" clip-rule="evenodd" d="M13.725,160c5.346-2.321,14.991-0.343,22-1
		C30.379,161.321,20.734,159.343,13.725,160z"/>
	<path fill-rule="evenodd" clip-rule="evenodd" d="M290.725,160c3.688-2.313,11.651-0.349,17-1c6,0,12,0,18,0
		c11.667,0,23.333,0,35,0c23.333,0,46.667,0,70,0C386.058,161.333,337.059,159.334,290.725,160z"/>
	<path fill-rule="evenodd" clip-rule="evenodd" d="M431.725,160c8.34-2.327,20.995-0.338,31-1c10.667,0,21.333,0,32,0
		C475.723,161.332,452.393,159.335,431.725,160z"/>
	<path fill-rule="evenodd" clip-rule="evenodd" d="M512.725,160c5.678-2.322,15.658-0.342,23-1
		C530.047,161.322,520.066,159.342,512.725,160z"/>
	<path fill-rule="evenodd" clip-rule="evenodd" d="M554.725,160c8.34-2.327,20.995-0.338,31-1
		C577.385,161.327,564.729,159.338,554.725,160z"/>
	<path fill-rule="evenodd" clip-rule="evenodd" d="M0.725,166c6.011-2.322,16.325-0.341,24-1
		C18.714,167.322,8.399,165.341,0.725,166z"/>
	<path fill-rule="evenodd" clip-rule="evenodd" d="M248.725,166c4.682-2.318,13.655-0.345,20-1
		C264.043,167.318,255.069,165.345,248.725,166z"/>
	<path fill-rule="evenodd" clip-rule="evenodd" d="M299.725,166c-6.082,0.401-19.703-0.286-29,0
		C278.126,164.279,292.303,164.411,299.725,166z"/>
	<path fill-rule="evenodd" clip-rule="evenodd" d="M442.725,166c4.35-2.316,12.987-0.346,19-1
		C457.375,167.316,448.737,165.346,442.725,166z"/>
	<path fill-rule="evenodd" clip-rule="evenodd" d="M495.725,166c2.366-2.3,8.976-0.358,13-1c4.667,0,9.333,0,14,0
		C515.716,167.325,504.397,165.34,495.725,166z"/>
	<path fill-rule="evenodd" clip-rule="evenodd" d="M537.725,166c5.346-2.321,14.99-0.343,22-1c7.333,0,14.667,0,22,0
		C569.055,167.33,552.061,165.336,537.725,166z"/>
	<path fill-rule="evenodd" clip-rule="evenodd" d="M0.725,172c5.014-2.319,14.323-0.344,21-1c7,0,14,0,21,0
		C30.721,173.33,14.394,171.336,0.725,172z"/>
	<path fill-rule="evenodd" clip-rule="evenodd" d="M137.725,172c24.001-2.332,52.333-0.334,78-1
		C191.724,173.332,163.392,171.334,137.725,172z"/>
	<path fill-rule="evenodd" clip-rule="evenodd" d="M228.725,171C219.16,173.95,215.377,169.843,228.725,171L228.725,171z"/>
	<path fill-rule="evenodd" clip-rule="evenodd" d="M319.725,173c-12.047,0.345-24.914-0.011-37-1c-7.255-0.594-46.286-0.703-24-1
		C279.423,170.724,300.292,171.758,319.725,173z"/>
	<path fill-rule="evenodd" clip-rule="evenodd" d="M344.725,172c5.346-2.321,14.99-0.343,22-1c7.333,0,14.667,0,22,0
		C376.055,173.33,359.061,171.336,344.725,172z"/>
	<path fill-rule="evenodd" clip-rule="evenodd" d="M413.725,172c5.678-2.322,15.658-0.342,23-1c7.667,0,15.333,0,23,0
		c15.333,0,30.667,0,46,0C477.058,173.333,444.059,171.334,413.725,172z"/>
	<path fill-rule="evenodd" clip-rule="evenodd" d="M554.725,171c-2.588-1.215-27.278,4.722-31,1
		C526.52,174.795,549.094,167.844,554.725,171z"/>
	<path fill-rule="evenodd" clip-rule="evenodd" d="M557.725,172c7.674-2.326,19.661-0.339,29-1
		C579.051,173.326,567.063,171.339,557.725,172z"/>
	<path fill-rule="evenodd" clip-rule="evenodd" d="M0.725,178c5.678-2.322,15.658-0.342,23-1c7.667,0,15.333,0,23,0
		c15.333,0,30.667,0,46,0c30.667,0,61.333,0,92,0C125.391,179.333,61.725,177.333,0.725,178z"/>
	<path fill-rule="evenodd" clip-rule="evenodd" d="M209.725,178c5.346-2.321,14.991-0.343,22-1
		C226.379,179.321,216.734,177.343,209.725,178z"/>
	<path fill-rule="evenodd" clip-rule="evenodd" d="M420.725,178c4.682-2.318,13.655-0.345,20-1c7,0,14,0,21,0
		c13.667,0,27.333,0,41,0C477.391,179.332,447.726,177.334,420.725,178z"/>
	<path fill-rule="evenodd" clip-rule="evenodd" d="M550.725,178c4.019-2.315,12.319-0.347,18-1c6,0,12,0,18,0
		C576.72,179.328,562.395,177.337,550.725,178z"/>
	<path fill-rule="evenodd" clip-rule="evenodd" d="M0.725,184c2.367-2.3,8.975-0.358,13-1c4.667,0,9.333,0,14,0
		C20.716,185.325,9.397,183.34,0.725,184z"/>
	<path fill-rule="evenodd" clip-rule="evenodd" d="M31.725,184c6.011-2.322,16.325-0.341,24-1c8.333,0,16.667,0,25,0
		c16.333,0,32.667,0,49,0c33,0,66,0,99,0C165.058,185.333,97.058,183.333,31.725,184z"/>
	<path fill-rule="evenodd" clip-rule="evenodd" d="M229.725,184c6.343-2.323,16.993-0.341,25-1
		C248.381,185.323,237.732,183.341,229.725,184z"/>
	<path fill-rule="evenodd" clip-rule="evenodd" d="M267.725,184c2.367-2.3,8.975-0.358,13-1c4.334,0,8.666,0,13,0
		C287.049,185.324,276.064,183.34,267.725,184z"/>
	<path fill-rule="evenodd" clip-rule="evenodd" d="M299.725,184c3.355-2.311,10.982-0.351,16-1c5.333,0,10.667,0,16,0
		C323.052,185.327,310.063,183.338,299.725,184z"/>
	<path fill-rule="evenodd" clip-rule="evenodd" d="M347.725,184c4.682-2.318,13.655-0.345,20-1
		C363.043,185.318,354.069,183.345,347.725,184z"/>
	<path fill-rule="evenodd" clip-rule="evenodd" d="M379.725,184c6.343-2.323,16.992-0.341,25-1c8.333,0,16.667,0,25,0
		C415.056,185.331,396.06,183.335,379.725,184z"/>
	<path fill-rule="evenodd" clip-rule="evenodd" d="M444.725,184c7.674-2.326,19.661-0.339,29-1c10,0,20,0,30,0c20,0,40,0,60,0
		C526.058,185.333,484.059,183.334,444.725,184z"/>
	<path fill-rule="evenodd" clip-rule="evenodd" d="M245.725,5c-57.825-2.875-120.531,2.595-179-1c57.111,3.225,119.744-4.76,176,0
		C243.941,4.103,250.775,4.017,245.725,5z"/>
	<path fill-rule="evenodd" clip-rule="evenodd" d="M411.725,10c-22.966,0.946-60.674-0.645-90,0
		C345.456,7.889,383.504,9.013,411.725,10z"/>
	<path fill-rule="evenodd" clip-rule="evenodd" d="M571.725,9c-16.11,2.559-44.383,1.615-65,3
		C526.371,8.98,550.137,10.079,571.725,9z"/>
	<path fill-rule="evenodd" clip-rule="evenodd" d="M27.725,11c20.648-2.979,42.611,1.387,65,0C71.977,14.079,49.99,9.737,27.725,11z
		"/>
	<path fill-rule="evenodd" clip-rule="evenodd" d="M166.725,10c-16.982,2.688-50.459,2.87-72,1
		C119.107,11.049,143.667,11.275,166.725,10z"/>
	<path fill-rule="evenodd" clip-rule="evenodd" d="M421.725,11c6.979-2.958,15.262,1.391,24,0c6.132,1.293-5.157,1.1-9,1
		C431.039,11.853,424.982,10.069,421.725,11z"/>
	<path fill-rule="evenodd" clip-rule="evenodd" d="M392.725,16c-40.393-1.924-74.621,2.563-112,0c2.191,0.15-9.324-0.223-3-1
		c31.145-3.827,68.975-0.335,101,0c12.597,0.132,28.059,1.169,35,2c11.446,1.37,4.287,0.122-1,0
		C405.758,16.839,395.801,16.146,392.725,16z"/>
	<path fill-rule="evenodd" clip-rule="evenodd" d="M108.725,18c-24.284,0.287-48.357,3.405-68-1c-6.131-1.375,3.292,0.132,0,0
		C59.595,17.757,83.275,18.04,108.725,18z"/>
	<path fill-rule="evenodd" clip-rule="evenodd" d="M169.725,16c-17.245,3.755-39.237,2.764-60,3
		C128.752,17.027,150.992,18.268,169.725,16z"/>
	<path fill-rule="evenodd" clip-rule="evenodd" d="M549.725,16c-32.372,3.077-77.898,3.505-115,2
		C470.986,17.709,511.987,17.671,549.725,16z"/>
	<path fill-rule="evenodd" clip-rule="evenodd" d="M225.725,20c6.382-4.565,28.576-0.261,40,0c3,0,6,0,9,0c2.666,0,5.334,0,8,0
		c-3.355,2.311-10.982,0.351-16,1c-12.814-1.186-26.038-1.962-40-2C225.874,18.816,225.781,19.39,225.725,20z"/>
	<path fill-rule="evenodd" clip-rule="evenodd" d="M194.725,21c1.467-0.986,7.819-1.84,13-2c4.065-0.126,14.087-0.097,8,1
		C207.642,19.251,202.249,21.19,194.725,21z"/>
	<path fill-rule="evenodd" clip-rule="evenodd" d="M190.725,20c-5.344,3.046-25.661,3.849-32,4c-3.185,0.076-4.075,1.55-1-1
		C169.413,22.688,180.288,21.563,190.725,20z"/>
	<path fill-rule="evenodd" clip-rule="evenodd" d="M19.725,22c-3.303,1.93-10.111-1.192-16,0C-2.982,20.313,16.593,20.853,19.725,22
		z"/>
	<path fill-rule="evenodd" clip-rule="evenodd" d="M388.725,21c6.292,1.833,26.275,0.223,26,2c-16.714-0.179-35.117-1-52-1
		c-9.722,0-19.779,3.059-29,0c2.854,0.947,13.034-1.012,12-1C359.899,20.846,370.455,21.111,388.725,21z"/>
	<path fill-rule="evenodd" clip-rule="evenodd" d="M585.725,21c-10.354,1.142-39.979,2.115-53,2c-2.597-0.023-5.2,2.032-1-1
		C550.474,22.416,566.614,20.223,585.725,21z"/>
	<path fill-rule="evenodd" clip-rule="evenodd" d="M208.725,24c9.339-2.328,22.996-0.338,34-1c3.251,1.767-8.602,0.977-13,1
		c-29.774,0.16-58.014,5.383-86,7C165.244,28.52,185.705,24.98,208.725,24z"/>
	<path fill-rule="evenodd" clip-rule="evenodd" d="M424.725,24c19.524-3.179,50.761,2.301,74-1
		C476.378,27.872,449.85,22.679,424.725,24z"/>
	<path fill-rule="evenodd" clip-rule="evenodd" d="M109.725,25c-10.93,1.54-34.966-0.992-52,0c-1.586-1.794,9.61-1,16-1
		C85.68,24,98.653,24.27,109.725,25z"/>
	<path fill-rule="evenodd" clip-rule="evenodd" d="M151.725,24c-10.489,3.844-25.868,2.799-40,3c11.018-2.315,26.754,0.088,37-3
		C149.725,24,150.725,24,151.725,24z"/>
	<path fill-rule="evenodd" clip-rule="evenodd" d="M248.725,25c11.088-2.028,34.4,0.889,50,1
		C284.101,27.619,265.225,24.838,248.725,25z"/>
	<path fill-rule="evenodd" clip-rule="evenodd" d="M11.725,28c-0.196-1.115,10.025-0.365,15,0
		C36.431,28.713,23.797,30.039,11.725,28z"/>
	<path fill-rule="evenodd" clip-rule="evenodd" d="M261.725,28c-14.831,0.275-35.591,0.28-52,2c-1.333,0.14-6.248,1.11-5-1
		C223.38,27.291,242.329,26.496,261.725,28z"/>
	<path fill-rule="evenodd" clip-rule="evenodd" d="M414.725,28c-16.167-0.109-31.202,0.74-42,0c-12.576-0.862,3.473-0.971,9-1
		C395.028,26.929,402.696,26.923,414.725,28z"/>
	<path fill-rule="evenodd" clip-rule="evenodd" d="M48.725,30c27.434-3.695,62.312,4.029,94,1
		C112.365,35.77,82.162,28.207,48.725,30z"/>
	<path fill-rule="evenodd" clip-rule="evenodd" d="M201.725,30c-27.752,4.581-55.364,9.303-88,9
		C144.755,37.697,172.534,33.143,201.725,30z"/>
	<path fill-rule="evenodd" clip-rule="evenodd" d="M297.725,32c21.834-0.165,52.758-0.76,76,1
		C348.195,32.863,321.822,33.568,297.725,32z"/>
	<path fill-rule="evenodd" clip-rule="evenodd" d="M223.725,33c14.541-3.493,37.423,1.875,55,2c3.572,2.782,2.254,1.001,0,1
		C264.648,35.996,241.458,31.565,223.725,33z"/>
	<path fill-rule="evenodd" clip-rule="evenodd" d="M394.725,33c0.441,0.723-16.674,0.988-19,0
		C378.033,33.981,386.989,30.51,394.725,33z"/>
	<path fill-rule="evenodd" clip-rule="evenodd" d="M416.725,34c2.559,0.195,21.686-0.891,31,0c2.868,0.274,5.119,0.429,1,1
		C440.639,36.121,431.309,34.971,416.725,34z"/>
	<path fill-rule="evenodd" clip-rule="evenodd" d="M464.725,35c1.8-2.383,20.597-2.757,6-1C468.151,34.31,469.185,35.274,464.725,35
		z"/>
	<path fill-rule="evenodd" clip-rule="evenodd" d="M31.725,35c10.48-2.088,39.171,0.117,50,1C63.948,36.776,49.112,34.613,31.725,35
		z"/>
	<path fill-rule="evenodd" clip-rule="evenodd" d="M211.725,34c1.596,1.662-7.864,0.754-10,2
		C200.407,34.615,207.984,33.643,211.725,34z"/>
	<path fill-rule="evenodd" clip-rule="evenodd" d="M89.725,36c-2.729-2.393,30.358,3.596,11,2
		C97.497,37.734,93.253,36.177,89.725,36z"/>
	<path fill-rule="evenodd" clip-rule="evenodd" d="M181.725,39c-3.873-3.616,7.211-0.731,8-3
		C204.948,36.437,185.226,37.073,181.725,39z"/>
	<path fill-rule="evenodd" clip-rule="evenodd" d="M298.725,37c0.189-1.135,1.004-0.556,1,0c7.334,0,14.666,0,22,0
		c1.2,1.146,0.39,2.534,0,1C314.293,37.432,304.526,39.198,298.725,37z"/>
	<path fill-rule="evenodd" clip-rule="evenodd" d="M0.725,39c54.28-3.337,111.042,6.964,165,1
		C113.333,47.599,56.654,37.438,0.725,39z"/>
	<path fill-rule="evenodd" clip-rule="evenodd" d="M220.725,40c2.971-1.972,31.79-2.868,10-1
		C227.772,39.253,226.374,40.708,220.725,40z"/>
	<path fill-rule="evenodd" clip-rule="evenodd" d="M258.725,39c10.352-1.293,30.303,4.986,48,3
		C290.249,45.471,273.889,40.174,258.725,39z"/>
	<path fill-rule="evenodd" clip-rule="evenodd" d="M216.725,39c-4.091,2.767-19.905,2.601-3,1
		C214.571,39.92,215.315,38.612,216.725,39z"/>
	<path fill-rule="evenodd" clip-rule="evenodd" d="M196.725,42c-10.747,2.542-45.728,6.162-64,6c-2.48-0.022-5.451,2.14-1-1
		C156.002,47.944,174.41,43.019,196.725,42z"/>
	<path fill-rule="evenodd" clip-rule="evenodd" d="M40.725,45c-5.751,0.996-32.186,0.255-39-1
		C15.302,43.756,28.339,44.052,40.725,45z"/>
	<path fill-rule="evenodd" clip-rule="evenodd" d="M248.725,45c5.65-2.294,15.245,0.07,21,1
		C261.652,46.738,256.683,44.375,248.725,45z"/>
	<path fill-rule="evenodd" clip-rule="evenodd" d="M206.725,47c2.039-2.295,8.305-0.362,12-1c-4.867,0.599-19.191,3-29,3
		c-7.283,0-1.987-0.334,3-1C194.906,47.709,197.88,46.556,206.725,47z"/>
	<path fill-rule="evenodd" clip-rule="evenodd" d="M277.725,48c6.795-1.485,24.254,1,34,1c10.57,0-4.965,0.099-8,0
		C295.851,48.745,284.856,49.457,277.725,48z"/>
	<path fill-rule="evenodd" clip-rule="evenodd" d="M396.725,51c53.527-3.294,107.479-5.19,162-2c1.858,0.108,9.346,0.12,3,1
		c-15.527,2.152-28.769-0.505-42-1C483.819,47.655,435.237,50.209,396.725,51z"/>
	<path fill-rule="evenodd" clip-rule="evenodd" d="M10.725,50c1.2-1.401,0.39-0.086,0,1C-0.203,51.691-0.203,49.309,10.725,50z"/>
	<path fill-rule="evenodd" clip-rule="evenodd" d="M52.725,50c31.267-3.266,59.953,4.712,94,2
		C114.358,56.365,85.45,48.609,52.725,50z"/>
	<path fill-rule="evenodd" clip-rule="evenodd" d="M183.725,49c-4.312,1.544-25.573,3.157-33,3c-2.015-0.043-3.42,1.77-1-1
		C162.327,51.603,171.491,48.767,183.725,49z"/>
	<path fill-rule="evenodd" clip-rule="evenodd" d="M235.725,52c2.736-3.183,19.575-2.157,26,0
		C252.419,52.264,244.206,49.688,235.725,52z"/>
	<path fill-rule="evenodd" clip-rule="evenodd" d="M216.725,52c8.625-2.801,19.618-0.298,8,0
		C221.281,52.088,214.135,52.841,216.725,52z"/>
	<path fill-rule="evenodd" clip-rule="evenodd" d="M539.725,54c-24.57-1.882-60.735,0.109-87-1
		C481.209,52.455,512.946,50.386,539.725,54z"/>
	<path fill-rule="evenodd" clip-rule="evenodd" d="M191.725,53c12.172-0.445,12.637,1.309,1,1
		C190.568,53.942,189.505,55.645,191.725,53z"/>
	<path fill-rule="evenodd" clip-rule="evenodd" d="M39.725,54c-6.414,1.324-31.146,3.428-38,1
		C15.486,55.761,26.469,53.745,39.725,54z"/>
	<path fill-rule="evenodd" clip-rule="evenodd" d="M186.725,54c-1.611,2.077-14.521,1.464-20,3
		C171.031,53.641,180.13,55.071,186.725,54z"/>
	<path fill-rule="evenodd" clip-rule="evenodd" d="M279.725,55c18.426,0.267,55.696-1.049,79,1
		C332.561,55.497,304.283,57.107,279.725,55z"/>
	<path fill-rule="evenodd" clip-rule="evenodd" d="M427.725,56c5.281-1.726,14.496-2.053,18-2c10.343,0.156,1.481,0.568-6,1
		C435.716,55.231,434.309,56.662,427.725,56z"/>
	<path fill-rule="evenodd" clip-rule="evenodd" d="M542.725,55c6.218,0.237,25.171-1.006,39,0c-4.748-0.346,9.113,0.144,1,1
		C572.006,57.131,560.05,55.86,542.725,55z"/>
	<path fill-rule="evenodd" clip-rule="evenodd" d="M155.725,57c-20.734,1.402-39.275,3.751-56,0c-6.131-1.375,3.292,0.132,0,0
		C115.309,57.625,134.148,57.812,155.725,57z"/>
	<path fill-rule="evenodd" clip-rule="evenodd" d="M475.725,57c7.85-2.435,33.513-0.242,41,1
		C502.362,58.362,490.499,56.226,475.725,57z"/>
	<path fill-rule="evenodd" clip-rule="evenodd" d="M224.725,59c2.367-2.3,8.975-0.358,13-1C237.024,60.42,193.11,59.826,224.725,59z
		"/>
	<path fill-rule="evenodd" clip-rule="evenodd" d="M525.725,59c4.231-2.405,18.528,2.021,28,1
		C545.323,62.721,534.98,58.755,525.725,59z"/>
	<path fill-rule="evenodd" clip-rule="evenodd" d="M85.725,59c-22.893,1.673-57.514,1.065-85,3
		C26.64,58.582,56.407,59.016,85.725,59z"/>
	<path fill-rule="evenodd" clip-rule="evenodd" d="M199.725,59c1,0,2,0,3,0c0.715,2.716-4.715-0.716-4,2
		c-17.764-0.431-32.321,2.346-50,2C164.337,60.279,183.865,61.474,199.725,59z"/>
	<path fill-rule="evenodd" clip-rule="evenodd" d="M241.725,60c31.418-1.417,66.021,2.645,101,1
		C309.484,64.238,274.657,60.401,241.725,60z"/>
	<path fill-rule="evenodd" clip-rule="evenodd" d="M441.725,59c-19.451,3.244-51.134,5.885-76,4
		C389.55,62.963,417.033,61.147,441.725,59z"/>
	<path fill-rule="evenodd" clip-rule="evenodd" d="M93.725,61c5.237-2.212,14.546,0.103,20,1
		C105.955,62.771,101.257,60.468,93.725,61z"/>
	<path fill-rule="evenodd" clip-rule="evenodd" d="M504.725,64c-0.794-0.561,24.756-0.401,22,1
		C519.247,64.812,510.742,65.648,504.725,64z"/>
	<path fill-rule="evenodd" clip-rule="evenodd" d="M52.725,66c17.879-4.358,40.221-0.823,59,0c1.2,1.146,0.39,2.534,0,1
		C92.618,65.643,72.526,63.838,52.725,66z"/>
	<path fill-rule="evenodd" clip-rule="evenodd" d="M427.725,67c-3.724-1.387,2.943-0.15,2-2c5,0,10,0,15,0
		C440.997,67.605,431.604,64.546,427.725,67z"/>
	<path fill-rule="evenodd" clip-rule="evenodd" d="M23.725,66c-2.848,0.911-12.487,3.04-20,2c-5.324-0.737,0.875-0.833,2-1
		C8.698,66.559,16.78,66.693,23.725,66z"/>
	<path fill-rule="evenodd" clip-rule="evenodd" d="M166.725,67c28.688,0.722,63.818-3.334,87-1c4.251,0.428,9.59,0.914,1,1
		C225.96,67.286,196.822,67.65,166.725,67z"/>
	<path fill-rule="evenodd" clip-rule="evenodd" d="M540.725,67c5.452-3.089,12.123,1.188,19,0
		C558.121,69.953,547.065,65.892,540.725,67z"/>
	<path fill-rule="evenodd" clip-rule="evenodd" d="M406.725,67c-7.41,2.955-18.313,3.915-29,3c-7.949-0.681,0.369-0.834,3-1
		C386.611,68.629,397.943,69.169,406.725,67z"/>
	<path fill-rule="evenodd" clip-rule="evenodd" d="M465.725,69c4.682-2.318,13.655-0.345,20-1c-10.132,1.54-30.05,1.946-44,3
		C448.556,69.164,456.941,68.884,465.725,69z"/>
	<path fill-rule="evenodd" clip-rule="evenodd" d="M497.725,69c24.335-1.902,55.98,6.098,89,4
		C555.905,76.817,527.749,69.31,497.725,69z"/>
	<path fill-rule="evenodd" clip-rule="evenodd" d="M68.725,71c33.87-2.079,77.623,4.26,119,2
		C147.558,76.832,108.455,70.937,68.725,71z"/>
	<path fill-rule="evenodd" clip-rule="evenodd" d="M38.725,71c3.333,0,6.667,0,10,0c-1.669,2.664-9.221-0.555-11,2
		C35.817,72.14,38.805,72.406,38.725,71z"/>
	<path fill-rule="evenodd" clip-rule="evenodd" d="M440.725,71c-40.606,7.92-90.595,0.858-135,4
		C348.48,70.053,398.532,77.354,440.725,71z"/>
	<path fill-rule="evenodd" clip-rule="evenodd" d="M249.725,75c10.666-0.336,30.649-0.655,46,0c1.316,0.057,7.287-1.134,5,1
		C283.229,76.163,265.972,76.087,249.725,75z"/>
	<path fill-rule="evenodd" clip-rule="evenodd" d="M459.725,76c2.366-2.3,8.976-0.358,13-1c-2.838,0.958-23.162,3.336-26,1
		C451.058,76,455.392,76,459.725,76z"/>
	<path fill-rule="evenodd" clip-rule="evenodd" d="M491.725,76c13.162-3.108,36.071,1.223,53,1
		C528.543,79.178,510.529,74.532,491.725,76z"/>
	<path fill-rule="evenodd" clip-rule="evenodd" d="M89.725,76c3.667,0,7.333,0,11,0C106.712,78.951,92.112,76.979,89.725,76z"/>
	<path fill-rule="evenodd" clip-rule="evenodd" d="M27.725,79c1.765-0.914,8.619-1.861,14-2c4.069-0.105,13.961-0.136,8,1
		C41.283,77.225,35.736,79.345,27.725,79z"/>
	<path fill-rule="evenodd" clip-rule="evenodd" d="M104.725,78c23.607,0.466,63.003,1.719,93,0
		C168.931,81.115,133.627,80.532,104.725,78z"/>
	<path fill-rule="evenodd" clip-rule="evenodd" d="M218.725,79c3.689-0.333,15.44-0.124,21,1
		C235.282,81.087,224.267,80.142,218.725,79z"/>
	<path fill-rule="evenodd" clip-rule="evenodd" d="M426.725,78c-12.187,2.15-32.627,4.704-51,4
		C392.989,80.932,409.407,79.017,426.725,78z"/>
	<path fill-rule="evenodd" clip-rule="evenodd" d="M546.725,79c5.386-0.63,32.39-0.458,39,1
		C572.399,79.992,558.69,80.367,546.725,79z"/>
	<path fill-rule="evenodd" clip-rule="evenodd" d="M373.725,80c-17.489-1.268-57.031,1.992-77,2c-3.208,0.001-6.914,2.123-1-1
		C321.32,80.191,347.729,77.383,373.725,80z"/>
	<path fill-rule="evenodd" clip-rule="evenodd" d="M290.725,82c-13.41,0.359-39.417,3.708-49-1
		C248.643,84.398,270.811,80.457,290.725,82z"/>
	<path fill-rule="evenodd" clip-rule="evenodd" d="M467.725,81c20.55-2.855,50.307,2.34,75,2
		C518.889,85.167,493.78,79.946,467.725,81z"/>
	<path fill-rule="evenodd" clip-rule="evenodd" d="M448.725,82c0.023,1.136-24.285,4.177-19,1
		C437.123,83.731,441.938,81.881,448.725,82z"/>
	<path fill-rule="evenodd" clip-rule="evenodd" d="M113.725,84c-26.729-0.713,9.274-1.515,12,1
		C122.029,84.362,115.763,86.295,113.725,84z"/>
	<path fill-rule="evenodd" clip-rule="evenodd" d="M230.725,86c-5.738,1.89-26.354-1.332-8,0
		C224.858,86.155,227.797,85.889,230.725,86z"/>
	<path fill-rule="evenodd" clip-rule="evenodd" d="M338.725,85c0.574,1.292-7.823,2.139-12,2
		C329.854,85.462,334.466,85.408,338.725,85z"/>
	<path fill-rule="evenodd" clip-rule="evenodd" d="M356.725,86c5.81-2.37,29.25,0.001,35,1C379.074,87.65,369.444,85.28,356.725,86z
		"/>
	<path fill-rule="evenodd" clip-rule="evenodd" d="M232.725,88c9.874,1.042,45.578,0.863,61,1c2.266,0.021,5.799-2.249,1,1
		C273.846,89.546,250.672,91.386,232.725,88z"/>
	<path fill-rule="evenodd" clip-rule="evenodd" d="M489.725,87c-45.207,4.903-107.705,2.262-159,6c-2.475,0.127-1.7-1.225,0-1
		C382.178,88.786,437.941,89.884,489.725,87z"/>
	<path fill-rule="evenodd" clip-rule="evenodd" d="M492.725,88c11.528-1.567,30.544-1.26,42,0c4.205,0.463,7.65,0.829,1,1
		C527.871,89.201,507.107,87.396,492.725,88z"/>
	<path fill-rule="evenodd" clip-rule="evenodd" d="M93.725,89c5.209-2.427,28.224-0.313,33,1
		C115.138,90.253,105.819,88.239,93.725,89z"/>
	<path fill-rule="evenodd" clip-rule="evenodd" d="M61.725,89c-0.226,1.44-2.985,0.349-3,2c-15.335-0.664-33.331,1.33-47-1
		C28.178,89.453,46.894,91.169,61.725,89z"/>
	<path fill-rule="evenodd" clip-rule="evenodd" d="M544.725,90c-1.477-2.613,5.615,1.065,9,0
		C555.503,92.312,546.733,90.311,544.725,90z"/>
	<path fill-rule="evenodd" clip-rule="evenodd" d="M143.725,90c4.491-0.491,7.493,0.507,11,1c27.682-2.825,57.99-0.13,83,3
		C215.779,91.218,167.307,91.794,143.725,90z"/>
	<path fill-rule="evenodd" clip-rule="evenodd" d="M321.725,93c-5.024,1.667-28.818,2.102-37,2c-2.05-0.025-3.473,1.817-1-1
		C297.502,94.777,308.33,92.604,321.725,93z"/>
	<path fill-rule="evenodd" clip-rule="evenodd" d="M490.725,93c-30.498,3.268-68.547,3.984-99,4
		C424.217,95.158,458.136,94.745,490.725,93z"/>
	<path fill-rule="evenodd" clip-rule="evenodd" d="M504.725,94c19.248-1.555,49.001,3.646,75,2
		C554.835,99.221,529.205,94.521,504.725,94z"/>
	<path fill-rule="evenodd" clip-rule="evenodd" d="M91.725,95c41.012-1.442,83.499,0.236,123,2c1.2,1.146,0.39,2.534,0,1
		c-43.189-6.02-107.783,1.444-156-2c-8.347-0.596,11.265-1,14-1c5.698,0,10.209,0,17,0C90.391,95,91.058,95,91.725,95z"/>
	<path fill-rule="evenodd" clip-rule="evenodd" d="M241.725,95c2.178-0.027,22.074-0.853,29,1
		C261.221,95.503,249.626,97.099,241.725,95z"/>
	<path fill-rule="evenodd" clip-rule="evenodd" d="M376.725,96c2.475-0.127,1.7,1.225,0,1c-46.144,2.055-91.268,6.322-139,4
		C283.546,100.986,330.888,98.752,376.725,96z"/>
	<path fill-rule="evenodd" clip-rule="evenodd" d="M223.725,99c-21.96-2.461,25.854,1.554,2,1
		C224.392,99.969,224.18,99.051,223.725,99z"/>
	<path fill-rule="evenodd" clip-rule="evenodd" d="M71.725,101c15.568-3.099,35.653-1.68,54-2c-0.027,0.973-1.224,0.776-2,1
		C105.732,99.675,88.589,100.197,71.725,101z"/>
	<path fill-rule="evenodd" clip-rule="evenodd" d="M136.725,101c12.088-2.366,36.118,0.508,52,1
		C173.733,103.32,154.343,100.385,136.725,101z"/>
	<path fill-rule="evenodd" clip-rule="evenodd" d="M468.725,100c-0.354,1.35-9.976,1.997-15,2
		C457.859,100.469,463.222,100.164,468.725,100z"/>
	<path fill-rule="evenodd" clip-rule="evenodd" d="M61.725,101c-13.699,1.334-45.858,3.434-60,1
		C22.822,102.765,41.112,100.721,61.725,101z"/>
	<path fill-rule="evenodd" clip-rule="evenodd" d="M532.725,102c2.965-2.898,8.233,0.384,12,0
		C542.124,104.534,537.512,100.596,532.725,102z"/>
	<path fill-rule="evenodd" clip-rule="evenodd" d="M355.725,104c1.2-1.401,0.39-0.086,0,1c-5.349-0.651-13.313,1.313-17-1
		C344.392,104,350.058,104,355.725,104z"/>
	<path fill-rule="evenodd" clip-rule="evenodd" d="M106.725,104c-13.218,2.452-37.654,2.343-56,3
		C68.068,104.677,88.124,105.065,106.725,104z"/>
	<path fill-rule="evenodd" clip-rule="evenodd" d="M124.725,105c-5.955-2.373,3.384,0.05,2,0c27.319,0.977,62.195,1.592,90,4
		C188.66,109.063,154.463,106.596,124.725,105z"/>
	<path fill-rule="evenodd" clip-rule="evenodd" d="M215.725,105c6.527-2.102,31.142,0.121,38,1
		C239.948,106.777,229.12,104.604,215.725,105z"/>
	<path fill-rule="evenodd" clip-rule="evenodd" d="M255.725,106c3.411-1.323,31.421,0.435,19,1
		C271.182,107.161,263.494,106.626,255.725,106z"/>
	<path fill-rule="evenodd" clip-rule="evenodd" d="M332.725,105c-5.533,0.886-28.71,3.18-34,1
		C310.881,106.489,320.284,104.226,332.725,105z"/>
	<path fill-rule="evenodd" clip-rule="evenodd" d="M477.725,107c-0.184-0.851,0.39-0.943,1-1c8.667,0,17.333,0,26,0
		c-1.802,2.218-16.233,0.418-23,1c-38.234,3.65-82.904,0.18-119,2C399.725,105.229,438.761,109.227,477.725,107z"/>
	<path fill-rule="evenodd" clip-rule="evenodd" d="M564.725,108c-16.956-0.82-30.613,1.554-42-1c-3.984-0.894,2.204,0.088,0,0
		C532.704,107.4,550.566,105.876,564.725,108z"/>
	<path fill-rule="evenodd" clip-rule="evenodd" d="M218.725,109c4.667,0,9.333,0,14,0C238.621,111.794,221.582,110.008,218.725,109z
		"/>
	<path fill-rule="evenodd" clip-rule="evenodd" d="M354.725,109c-1.317,1.571-16.887,2.412-22,2c-7.704-0.621-1.115-0.88,0-1
		C336.316,109.613,345.387,110.064,354.725,109z"/>
	<path fill-rule="evenodd" clip-rule="evenodd" d="M166.725,112c-31.247-1.006-72.467-0.499-105-1
		C96.503,109.833,133.243,109.284,166.725,112z"/>
	<path fill-rule="evenodd" clip-rule="evenodd" d="M265.725,111c11.701,0.011,41.509-0.876,58,1
		C304.445,111.613,283.45,112.941,265.725,111z"/>
	<path fill-rule="evenodd" clip-rule="evenodd" d="M53.725,112c-7.241,2.433-25.987,2.008-39,2
		C26.501,112.11,41.31,113.252,53.725,112z"/>
	<path fill-rule="evenodd" clip-rule="evenodd" d="M168.725,113c2.965-2.898,8.233,0.384,12,0
		C178.124,115.534,173.512,111.596,168.725,113z"/>
	<path fill-rule="evenodd" clip-rule="evenodd" d="M197.725,114c5.519,0.294,24.667-0.97,38,0c-5.618-0.408,9.378,0.116,1,1
		C226.48,116.081,214.593,114.956,197.725,114z"/>
	<path fill-rule="evenodd" clip-rule="evenodd" d="M420.725,115c-41.168-2.423-80.38,1.971-123,1
		C338.018,115.334,381.89,110.875,420.725,115z"/>
	<path fill-rule="evenodd" clip-rule="evenodd" d="M429.725,116c27.371-3.296,58.437-2.896,89-3
		C489.882,114.824,458.68,114.289,429.725,116z"/>
	<path fill-rule="evenodd" clip-rule="evenodd" d="M91.725,116c9,0,18,0,27,0C113.348,117.132,86.398,118.385,91.725,116z"/>
	<path fill-rule="evenodd" clip-rule="evenodd" d="M83.725,117c-15.441,1.895-41.207,2.124-61,3
		C41.629,117.571,62.758,117.367,83.725,117z"/>
	<path fill-rule="evenodd" clip-rule="evenodd" d="M129.725,118c9.819-2.421,37.684-0.4,47,1
		C160.542,119.183,146.47,117.254,129.725,118z"/>
	<path fill-rule="evenodd" clip-rule="evenodd" d="M429.725,121c22.195,0.065,50.759-0.906,75-2c-21.474,3.192-46.909,2.424-71,3
		C433.415,120.643,431.221,121.17,429.725,121z"/>
	<path fill-rule="evenodd" clip-rule="evenodd" d="M246.725,125c-83.133-0.593-165.523-0.409-245,0
		c76.524-0.067,158.875-4.461,240-1C242.992,124.054,252.125,123.829,246.725,125z"/>
	<path fill-rule="evenodd" clip-rule="evenodd" d="M253.725,125c13.449,0.933,33.475-1.975,52,0c10.132,1.08-5.021,1.115-3,1
		C289.68,126.741,273.88,125.909,253.725,125z"/>
	<path fill-rule="evenodd" clip-rule="evenodd" d="M427.725,127c12.84-2.279,39.778,2.136,57-1
		C468.558,130.517,445.968,126.787,427.725,127z"/>
	<path fill-rule="evenodd" clip-rule="evenodd" d="M214.725,131c7.352-3.001,20.019-2.631,26-2c8.348,0.881-8.377,1.072-6,1
		C227.577,130.218,220.668,129.307,214.725,131z"/>
	<path fill-rule="evenodd" clip-rule="evenodd" d="M328.725,130c18.793-2.43,50.2-0.223,72,1
		C375.893,131.499,353.83,129.229,328.725,130z"/>
	<path fill-rule="evenodd" clip-rule="evenodd" d="M183.725,131c9.053-0.431,41.969-0.642,20,0c-49.803,1.454-105.699,1-159,1
		c-10.551,0-17.816,0.604-25,0c-10.927-0.918,7.274-1,14-1c16.384,0,36.194,0,49,0C108.527,131,149.684,132.621,183.725,131z"/>
	<path fill-rule="evenodd" clip-rule="evenodd" d="M402.725,131c3.414-3.023,8.578,0.712,13,0
		C416.063,133.77,407.304,129.826,402.725,131z"/>
	<path fill-rule="evenodd" clip-rule="evenodd" d="M526.725,131c-30.432,1.397-62.809,3.345-93,2
		C462.408,132.685,494.537,130.742,526.725,131z"/>
	<path fill-rule="evenodd" clip-rule="evenodd" d="M196.725,137c-1.787,0.282-2.052-0.945-1-1c49.943-4.053,106.061,0,161,0
		c5.998,0,12.202-1.22,21,0c6.355,0.881-9.593,1-14,1C311.466,137,259.245,133.058,196.725,137z"/>
	<path fill-rule="evenodd" clip-rule="evenodd" d="M0.725,137c18.726-2.39,41.353-0.022,60,1
		C39.749,138.643,21.782,136.275,0.725,137z"/>
	<path fill-rule="evenodd" clip-rule="evenodd" d="M186.725,138c-4.333,0-8.667,0-13,0C176.411,137.007,192.681,135.153,186.725,138
		z"/>
	<path fill-rule="evenodd" clip-rule="evenodd" d="M392.725,137c26.36-2.216,67.096,2.953,100,0
		C460.943,141.515,426.289,136.754,392.725,137z"/>
	<path fill-rule="evenodd" clip-rule="evenodd" d="M585.725,136c-23.637,2.698-61.915-0.583-89,2
		C519.036,133.977,556.939,136.883,585.725,136z"/>
	<path fill-rule="evenodd" clip-rule="evenodd" d="M83.725,138c-1.144,2.799-11.792-1.289-18,0
		C66.898,135.172,78.37,138.436,83.725,138z"/>
	<path fill-rule="evenodd" clip-rule="evenodd" d="M252.725,140c10.137-0.45,29.199-0.583,44,0c1.308,0.052,7.718-1.15,5,1
		C284.851,141.207,268.38,141.012,252.725,140z"/>
	<path fill-rule="evenodd" clip-rule="evenodd" d="M216.725,141c3.356-2.311,10.983-0.351,16-1c-17.212,2.124-43.604,3.728-66,4
		C182.457,142.065,199.81,141.752,216.725,141z"/>
	<path fill-rule="evenodd" clip-rule="evenodd" d="M5.725,143c12.147-2.43,42.098-0.138,54,1C40.891,144.5,24.83,142.228,5.725,143z
		"/>
	<path fill-rule="evenodd" clip-rule="evenodd" d="M467.725,144c-8.333,0-16.667,0-25,0
		C435.462,141.635,462.156,142.809,467.725,144z"/>
	<path fill-rule="evenodd" clip-rule="evenodd" d="M160.725,143c0.667,0,1.333,0,2,0c5.257,0.389-4.261,2.035-4,2
		c-27.183,3.706-63.818-0.852-93,0C95.415,143.418,130.79,146.648,160.725,143z"/>
	<path fill-rule="evenodd" clip-rule="evenodd" d="M269.725,146c-41.726-0.18-86.562,4.615-131,5
		C181.544,149.033,226.401,144.173,269.725,146z"/>
	<path fill-rule="evenodd" clip-rule="evenodd" d="M507.725,149c-61.931,0.018-126.896-2-187-2c-9.393,0-13.964,2.002-20,0
		c3.356,1.113,12.646-1,17-1c56.261,0,116.764,2,176,2C496.773,148,512.158,147.396,507.725,149z"/>
	<path fill-rule="evenodd" clip-rule="evenodd" d="M23.725,149c18.313-2.281,47.277,2.033,70,2
		C71.93,152.792,47.466,148.594,23.725,149z"/>
	<path fill-rule="evenodd" clip-rule="evenodd" d="M248.725,152c7.339-2.656,16.555,1.434,26,0c-46.786,1.33-113.787,4.649-170,6
		c-1.54-0.529-0.063-1.043,1-1C153.87,155.813,200.819,153.428,248.725,152z"/>
	<path fill-rule="evenodd" clip-rule="evenodd" d="M392.725,153c32.778-1.031,83.512,1.229,123,2
		C473.246,155.813,433.513,153.878,392.725,153z"/>
	<path fill-rule="evenodd" clip-rule="evenodd" d="M66.725,156c4.627-0.275,17.121,0.198,25,0c1.983,0.908,1.983,3.358,0,1
		C83.64,156.418,73.174,158.218,66.725,156z"/>
	<path fill-rule="evenodd" clip-rule="evenodd" d="M241.725,158c-19.077,4.59-47.022,0.312-68,3
		C193.151,156.76,220.909,160.852,241.725,158z"/>
	<path fill-rule="evenodd" clip-rule="evenodd" d="M63.725,162c-4.458-2.542-14.667,0.667-19-2c5.667,0,11.333,0,17,0
		C60.781,161.85,67.448,160.613,63.725,162z"/>
	<path fill-rule="evenodd" clip-rule="evenodd" d="M172.725,160c-5.056,2.411-23.459,1.417-12,0
		C164.085,159.584,168.075,160.299,172.725,160z"/>
	<path fill-rule="evenodd" clip-rule="evenodd" d="M70.725,162c25.253-0.677,56.939,0.709,84-1
		C129.292,164.221,97.613,163.136,70.725,162z"/>
	<path fill-rule="evenodd" clip-rule="evenodd" d="M423.725,164c-37.099,2.235-81.31,2.689-118,2
		C344.724,164.999,384.281,164.557,423.725,164z"/>
	<path fill-rule="evenodd" clip-rule="evenodd" d="M46.725,166c17.756-1.392,47.912,2.065,72,1
		C95.742,169.647,69.826,166.567,46.725,166z"/>
	<path fill-rule="evenodd" clip-rule="evenodd" d="M239.725,165c-34.505,1.805-80.945,0.713-120,3
		C156.918,164.194,198.842,165.117,239.725,165z"/>
	<path fill-rule="evenodd" clip-rule="evenodd" d="M69.725,172c14.525,0.928,39.861-2.158,59,0c-5.154-0.581,7.709-0.083,1,1
		C109.227,173.164,88.973,173.085,69.725,172z"/>
	<path fill-rule="evenodd" clip-rule="evenodd" d="M391.725,176c-47.477,2.366-99.977,3.509-146,2c-22.912-0.751,8.479-1,17-1
		C304.814,177,351.181,177.599,391.725,176z"/>
	<path fill-rule="evenodd" clip-rule="evenodd" d="M413.725,177c2.743,1.127-6.716-0.711-10,0c-2.173-1.917,7.312-0.631,10-1
		C413.725,176.333,413.725,176.667,413.725,177z"/>
	<g>
		<path fill="#FFFFFF" stroke="#000000" d="M130.335,46.185h-10.752v-6.336h29.28v6.336h-10.752v27.264h-7.776V46.185z"/>
		<path fill="#FFFFFF" stroke="#000000" d="M170.847,50.097c2.144,1.904,3.216,4.776,3.216,8.616v14.736h-7.008v-3.216
			c-1.408,2.4-4.032,3.6-7.872,3.6c-1.984,0-3.704-0.336-5.16-1.008s-2.568-1.6-3.336-2.784s-1.152-2.528-1.152-4.032
			c0-2.4,0.904-4.288,2.712-5.664s4.6-2.064,8.376-2.064h5.952c0-1.632-0.496-2.888-1.488-3.768s-2.48-1.32-4.464-1.32
			c-1.376,0-2.728,0.216-4.056,0.648c-1.328,0.432-2.456,1.016-3.384,1.752l-2.688-5.232c1.408-0.992,3.096-1.76,5.064-2.304
			s3.992-0.816,6.072-0.816C165.631,47.241,168.703,48.193,170.847,50.097z M164.462,67.905c0.992-0.592,1.696-1.464,2.112-2.616
			v-2.64h-5.136c-3.072,0-4.608,1.008-4.608,3.024c0,0.96,0.376,1.72,1.128,2.28s1.784,0.84,3.096,0.84
			C162.334,68.793,163.47,68.497,164.462,67.905z"/>
		<path fill="#FFFFFF" stroke="#000000" d="M180.83,37.833h7.488v35.616h-7.488V37.833z"/>
		<path fill="#FFFFFF" stroke="#000000" d="M206.366,63.321l-3.6,3.552v6.576h-7.488V37.833h7.488v20.16l10.944-10.368h8.928
			l-10.752,10.944l11.712,14.88h-9.072L206.366,63.321z"/>
		<path fill="#FFFFFF" stroke="#000000" d="M257.197,72.201c-0.736,0.544-1.64,0.952-2.712,1.224
			c-1.072,0.271-2.2,0.408-3.384,0.408c-3.072,0-5.448-0.784-7.128-2.352c-1.68-1.568-2.52-3.872-2.52-6.912V53.961h-3.984v-5.76
			h3.984v-6.288h7.488v6.288h6.432v5.76h-6.432v10.512c0,1.088,0.28,1.928,0.84,2.52c0.56,0.592,1.352,0.888,2.376,0.888
			c1.184,0,2.192-0.32,3.024-0.96L257.197,72.201z"/>
		<path fill="#FFFFFF" stroke="#000000" d="M284.869,50.121c1.968,1.92,2.952,4.768,2.952,8.544v14.784h-7.488V59.817
			c0-2.048-0.448-3.576-1.344-4.584s-2.192-1.512-3.888-1.512c-1.888,0-3.392,0.584-4.512,1.752s-1.68,2.904-1.68,5.208v12.768
			h-7.488V37.833h7.488v12.48c0.992-0.992,2.192-1.751,3.6-2.28c1.408-0.528,2.944-0.792,4.608-0.792
			C280.317,47.241,282.901,48.201,284.869,50.121z"/>
		<path fill="#FFFFFF" stroke="#000000" d="M320.027,62.649h-19.535c0.352,1.6,1.184,2.864,2.496,3.792
			c1.312,0.928,2.943,1.392,4.896,1.392c1.344,0,2.536-0.2,3.576-0.6s2.008-1.032,2.903-1.896l3.984,4.32
			c-2.432,2.784-5.984,4.176-10.656,4.176c-2.912,0-5.488-0.568-7.728-1.704c-2.24-1.136-3.968-2.712-5.185-4.728
			c-1.215-2.016-1.823-4.304-1.823-6.864c0-2.528,0.6-4.808,1.8-6.84c1.2-2.032,2.848-3.616,4.943-4.752
			c2.096-1.136,4.44-1.704,7.033-1.704c2.527,0,4.815,0.544,6.863,1.632s3.656,2.648,4.824,4.68c1.168,2.032,1.752,4.392,1.752,7.08
			C320.172,60.729,320.123,61.401,320.027,62.649z M302.508,54.345c-1.152,0.96-1.855,2.272-2.111,3.936h12.719
			c-0.256-1.632-0.959-2.936-2.111-3.912c-1.152-0.976-2.561-1.464-4.225-1.464C305.084,52.905,303.66,53.385,302.508,54.345z"/>
		<path fill="#FFFFFF" stroke="#000000" d="M346.235,46.185h-10.752v-6.336h29.28v6.336h-10.752v27.264h-7.776V46.185z"/>
		<path fill="#FFFFFF" stroke="#000000" d="M386.747,50.097c2.144,1.904,3.216,4.776,3.216,8.616v14.736h-7.008v-3.216
			c-1.408,2.4-4.032,3.6-7.872,3.6c-1.983,0-3.704-0.336-5.159-1.008c-1.457-0.672-2.568-1.6-3.337-2.784s-1.151-2.528-1.151-4.032
			c0-2.4,0.903-4.288,2.711-5.664c1.809-1.376,4.601-2.064,8.377-2.064h5.951c0-1.632-0.496-2.888-1.488-3.768
			s-2.479-1.32-4.463-1.32c-1.377,0-2.729,0.216-4.057,0.648c-1.328,0.432-2.456,1.016-3.384,1.752l-2.688-5.232
			c1.408-0.992,3.097-1.76,5.064-2.304s3.992-0.816,6.072-0.816C381.531,47.241,384.604,48.193,386.747,50.097z M380.363,67.905
			c0.992-0.592,1.695-1.464,2.111-2.616v-2.64h-5.135c-3.072,0-4.609,1.008-4.609,3.024c0,0.96,0.377,1.72,1.129,2.28
			s1.783,0.84,3.096,0.84C378.234,68.793,379.371,68.497,380.363,67.905z"/>
		<path fill="#FFFFFF" stroke="#000000" d="M396.73,37.833h7.488v35.616h-7.488V37.833z"/>
		<path fill="#FFFFFF" stroke="#000000" d="M422.266,63.321l-3.6,3.552v6.576h-7.488V37.833h7.488v20.16l10.943-10.368h8.928
			l-10.752,10.944l11.713,14.88h-9.072L422.266,63.321z"/>
	</g>
	<g>
		<path fill="#FFFFFF" stroke="#000000" d="M63.855,128.434c-0.78-2.881-1.17-5.965-1.17-9.252c0-3.289,0.39-6.379,1.17-9.271
			c0.78-2.892,1.89-5.418,3.33-7.578h5.364c-1.512,2.664-2.616,5.37-3.312,8.118c-0.696,2.748-1.044,5.658-1.044,8.73
			s0.348,5.981,1.044,8.729c0.696,2.747,1.8,5.454,3.312,8.118h-5.364C65.745,133.845,64.635,131.313,63.855,128.434z"/>
		<path fill="#FFFFFF" stroke="#000000" d="M79.228,128.055c-1.62-0.852-2.886-2.033-3.798-3.546
			c-0.912-1.512-1.368-3.228-1.368-5.147s0.456-3.637,1.368-5.148s2.178-2.693,3.798-3.546c1.62-0.852,3.45-1.278,5.49-1.278
			s3.864,0.427,5.472,1.278c1.608,0.853,2.868,2.034,3.78,3.546s1.368,3.229,1.368,5.148s-0.456,3.636-1.368,5.147
			c-0.912,1.513-2.172,2.694-3.78,3.546c-1.608,0.853-3.432,1.278-5.472,1.278S80.848,128.907,79.228,128.055z M88.264,123.268
			c0.924-0.973,1.386-2.274,1.386-3.906c0-1.633-0.462-2.934-1.386-3.906c-0.924-0.972-2.106-1.458-3.546-1.458
			c-1.44,0-2.628,0.486-3.564,1.458c-0.936,0.973-1.404,2.273-1.404,3.906c0,1.632,0.468,2.934,1.404,3.906
			c0.936,0.972,2.124,1.457,3.564,1.457C86.157,124.725,87.339,124.239,88.264,123.268z"/>
		<path fill="#FFFFFF" stroke="#000000" d="M107.164,110.109c1.14-0.48,2.454-0.721,3.942-0.721v5.184
			c-0.624-0.047-1.044-0.071-1.26-0.071c-1.608,0-2.868,0.45-3.78,1.351c-0.912,0.899-1.368,2.25-1.368,4.049v9.145h-5.616v-19.368
			h5.364v2.556C105.118,111.297,106.023,110.59,107.164,110.109z"/>
		<path fill="#FFFFFF" stroke="#000000" d="M129.861,109.245c0.336,0.528,0.504,1.151,0.504,1.872c0,1.031-0.324,1.866-0.972,2.502
			s-1.476,0.953-2.484,0.953s-1.842-0.323-2.502-0.971c-0.66-0.648-0.99-1.477-0.99-2.484c0-0.48,0.06-0.96,0.18-1.439
			c0.12-0.48,0.384-1.201,0.792-2.16l2.088-5.185h3.564l-1.584,5.724C129.057,108.321,129.525,108.717,129.861,109.245z"/>
		<path fill="#FFFFFF" stroke="#000000" d="M137.619,128.055c-1.62-0.852-2.886-2.033-3.798-3.546
			c-0.912-1.512-1.368-3.228-1.368-5.147s0.456-3.637,1.368-5.148s2.178-2.693,3.798-3.546c1.62-0.852,3.45-1.278,5.49-1.278
			s3.864,0.427,5.472,1.278c1.608,0.853,2.868,2.034,3.78,3.546s1.368,3.229,1.368,5.148s-0.456,3.636-1.368,5.147
			c-0.912,1.513-2.172,2.694-3.78,3.546c-1.608,0.853-3.432,1.278-5.472,1.278S139.239,128.907,137.619,128.055z M146.655,123.268
			c0.924-0.973,1.386-2.274,1.386-3.906c0-1.633-0.462-2.934-1.386-3.906c-0.924-0.972-2.106-1.458-3.546-1.458
			c-1.44,0-2.628,0.486-3.564,1.458c-0.936,0.973-1.404,2.273-1.404,3.906c0,1.632,0.468,2.934,1.404,3.906
			c0.936,0.972,2.124,1.457,3.564,1.457C144.549,124.725,145.731,124.239,146.655,123.268z"/>
		<path fill="#FFFFFF" stroke="#000000" d="M188.037,109.677l-7.02,19.368h-5.4l-4.356-12.023l-4.5,12.023h-5.4l-6.984-19.368h5.292
			l4.572,13.104l4.752-13.104h4.752l4.608,13.104l4.716-13.104H188.037z"/>
		<path fill="#FFFFFF" stroke="#000000" d="M213.345,128.109c-0.552,0.408-1.23,0.713-2.034,0.918
			c-0.804,0.203-1.65,0.306-2.538,0.306c-2.304,0-4.086-0.588-5.346-1.765c-1.26-1.176-1.89-2.903-1.89-5.184v-7.956h-2.988v-4.319
			h2.988v-4.717h5.616v4.717h4.824v4.319h-4.824v7.884c0,0.816,0.21,1.447,0.63,1.891c0.42,0.444,1.014,0.666,1.782,0.666
			c0.888,0,1.644-0.24,2.268-0.721L213.345,128.109z"/>
		<path fill="#FFFFFF" stroke="#000000" d="M219.627,128.055c-1.62-0.852-2.886-2.033-3.798-3.546
			c-0.912-1.512-1.368-3.228-1.368-5.147s0.456-3.637,1.368-5.148s2.178-2.693,3.798-3.546c1.62-0.852,3.45-1.278,5.49-1.278
			s3.864,0.427,5.472,1.278c1.608,0.853,2.868,2.034,3.78,3.546s1.368,3.229,1.368,5.148s-0.456,3.636-1.368,5.147
			c-0.912,1.513-2.172,2.694-3.78,3.546c-1.608,0.853-3.432,1.278-5.472,1.278S221.247,128.907,219.627,128.055z M228.663,123.268
			c0.924-0.973,1.386-2.274,1.386-3.906c0-1.633-0.462-2.934-1.386-3.906c-0.924-0.972-2.106-1.458-3.546-1.458
			c-1.44,0-2.628,0.486-3.564,1.458c-0.936,0.973-1.404,2.273-1.404,3.906c0,1.632,0.468,2.934,1.404,3.906
			c0.936,0.972,2.124,1.457,3.564,1.457C226.557,124.725,227.739,124.239,228.663,123.268z"/>
		<path fill="#FFFFFF" stroke="#000000" d="M251.468,128.739c-1.536-0.396-2.76-0.894-3.671-1.494l1.872-4.032
			c0.864,0.553,1.908,1.002,3.132,1.35c1.224,0.349,2.424,0.522,3.6,0.522c2.376,0,3.564-0.588,3.564-1.765
			c0-0.551-0.324-0.947-0.972-1.188c-0.648-0.24-1.644-0.443-2.988-0.611c-1.584-0.24-2.893-0.516-3.924-0.828
			c-1.032-0.313-1.926-0.864-2.682-1.656s-1.134-1.92-1.134-3.385c0-1.223,0.354-2.309,1.062-3.258
			c0.708-0.947,1.74-1.686,3.096-2.213c1.356-0.528,2.958-0.793,4.806-0.793c1.368,0,2.73,0.15,4.086,0.451
			c1.356,0.299,2.478,0.713,3.366,1.241l-1.872,3.996c-1.704-0.96-3.564-1.44-5.58-1.44c-1.2,0-2.1,0.168-2.7,0.504
			s-0.9,0.769-0.9,1.297c0,0.6,0.324,1.02,0.972,1.26c0.648,0.24,1.68,0.468,3.096,0.684c1.584,0.264,2.88,0.547,3.888,0.846
			c1.008,0.301,1.884,0.846,2.628,1.639c0.744,0.791,1.116,1.896,1.116,3.312c0,1.2-0.36,2.269-1.08,3.204
			c-0.72,0.937-1.77,1.662-3.15,2.178s-3.018,0.774-4.914,0.774C254.576,129.333,253.004,129.135,251.468,128.739z"/>
		<path fill="#FFFFFF" stroke="#000000" d="M285.146,110.631c1.476,0.828,2.634,1.992,3.474,3.492s1.26,3.246,1.26,5.238
			s-0.42,3.738-1.26,5.238s-1.998,2.664-3.474,3.492c-1.476,0.828-3.114,1.241-4.914,1.241c-2.472,0-4.416-0.78-5.832-2.34v9.036
			h-5.616v-26.353h5.364v2.231c1.392-1.68,3.42-2.52,6.084-2.52C282.032,109.389,283.67,109.803,285.146,110.631z M282.806,123.268
			c0.924-0.973,1.386-2.274,1.386-3.906c0-1.633-0.462-2.934-1.386-3.906c-0.924-0.972-2.106-1.458-3.546-1.458
			s-2.622,0.486-3.546,1.458c-0.924,0.973-1.386,2.273-1.386,3.906c0,1.632,0.462,2.934,1.386,3.906
			c0.924,0.972,2.106,1.457,3.546,1.457S281.882,124.239,282.806,123.268z"/>
		<path fill="#FFFFFF" stroke="#000000" d="M312.488,120.945h-14.652c0.264,1.199,0.888,2.148,1.871,2.844
			c0.984,0.696,2.209,1.044,3.673,1.044c1.008,0,1.901-0.149,2.682-0.45c0.78-0.299,1.507-0.773,2.179-1.422l2.987,3.24
			c-1.824,2.088-4.487,3.132-7.991,3.132c-2.185,0-4.117-0.426-5.797-1.278c-1.68-0.852-2.976-2.033-3.888-3.546
			c-0.912-1.512-1.368-3.228-1.368-5.147c0-1.896,0.45-3.605,1.35-5.131c0.9-1.523,2.136-2.711,3.708-3.563
			c1.571-0.852,3.329-1.278,5.273-1.278c1.896,0,3.611,0.408,5.148,1.225c1.535,0.816,2.742,1.986,3.617,3.51
			c0.877,1.523,1.314,3.294,1.314,5.311C312.596,119.506,312.56,120.01,312.488,120.945z M299.348,114.717
			c-0.864,0.721-1.393,1.704-1.584,2.952h9.54c-0.192-1.224-0.72-2.202-1.584-2.935c-0.864-0.731-1.92-1.098-3.168-1.098
			C301.279,113.637,300.211,113.997,299.348,114.717z"/>
		<path fill="#FFFFFF" stroke="#000000" d="M330.523,111.531c1.607,1.428,2.412,3.582,2.412,6.462v11.052h-5.256v-2.412
			c-1.057,1.801-3.024,2.7-5.904,2.7c-1.488,0-2.778-0.253-3.87-0.756c-1.092-0.504-1.926-1.2-2.502-2.089
			c-0.576-0.887-0.864-1.896-0.864-3.023c0-1.8,0.678-3.215,2.034-4.248c1.356-1.031,3.45-1.548,6.282-1.548h4.464
			c0-1.224-0.372-2.165-1.116-2.825s-1.859-0.99-3.348-0.99c-1.032,0-2.046,0.162-3.042,0.485c-0.996,0.324-1.843,0.763-2.538,1.313
			l-2.016-3.924c1.056-0.744,2.322-1.319,3.798-1.728c1.476-0.407,2.993-0.612,4.554-0.612
			C326.611,109.389,328.915,110.104,330.523,111.531z M325.735,124.887c0.744-0.443,1.272-1.098,1.584-1.962v-1.979h-3.853
			c-2.303,0-3.455,0.756-3.455,2.268c0,0.721,0.281,1.29,0.846,1.71s1.338,0.63,2.322,0.63
			C324.14,125.553,324.991,125.331,325.735,124.887z"/>
		<path fill="#FFFFFF" stroke="#000000" d="M346.327,121.449l-2.7,2.664v4.932h-5.616v-26.712h5.616v15.12l8.207-7.776h6.697
			l-8.064,8.208l8.783,11.16h-6.803L346.327,121.449z"/>
		<path fill="#FFFFFF" stroke="#000000" d="M388.32,110.631c1.475,0.828,2.633,1.992,3.473,3.492s1.26,3.246,1.26,5.238
			s-0.42,3.738-1.26,5.238s-1.998,2.664-3.473,3.492c-1.477,0.828-3.115,1.241-4.914,1.241c-2.473,0-4.416-0.78-5.832-2.34v9.036
			h-5.617v-26.353h5.365v2.231c1.391-1.68,3.42-2.52,6.084-2.52C385.205,109.389,386.844,109.803,388.32,110.631z M385.979,123.268
			c0.924-0.973,1.387-2.274,1.387-3.906c0-1.633-0.463-2.934-1.387-3.906c-0.924-0.972-2.105-1.458-3.545-1.458
			s-2.623,0.486-3.547,1.458c-0.924,0.973-1.385,2.273-1.385,3.906c0,1.632,0.461,2.934,1.385,3.906
			c0.924,0.972,2.107,1.457,3.547,1.457S385.055,124.239,385.979,123.268z"/>
		<path fill="#FFFFFF" stroke="#000000" d="M404.879,110.109c1.141-0.48,2.455-0.721,3.943-0.721v5.184
			c-0.625-0.047-1.045-0.071-1.262-0.071c-1.607,0-2.867,0.45-3.779,1.351c-0.912,0.899-1.367,2.25-1.367,4.049v9.145h-5.617
			v-19.368h5.365v2.556C402.834,111.297,403.738,110.59,404.879,110.109z"/>
		<path fill="#FFFFFF" stroke="#000000" d="M415.715,128.055c-1.619-0.852-2.885-2.033-3.797-3.546
			c-0.912-1.512-1.369-3.228-1.369-5.147s0.457-3.637,1.369-5.148s2.178-2.693,3.797-3.546c1.621-0.852,3.451-1.278,5.49-1.278
			c2.041,0,3.865,0.427,5.473,1.278c1.607,0.853,2.867,2.034,3.779,3.546s1.369,3.229,1.369,5.148s-0.457,3.636-1.369,5.147
			c-0.912,1.513-2.172,2.694-3.779,3.546c-1.607,0.853-3.432,1.278-5.473,1.278C419.166,129.333,417.336,128.907,415.715,128.055z
			 M424.752,123.268c0.924-0.973,1.387-2.274,1.387-3.906c0-1.633-0.463-2.934-1.387-3.906c-0.924-0.972-2.107-1.458-3.547-1.458
			s-2.627,0.486-3.564,1.458c-0.936,0.973-1.402,2.273-1.402,3.906c0,1.632,0.467,2.934,1.402,3.906
			c0.938,0.972,2.125,1.457,3.564,1.457S423.828,124.239,424.752,123.268z"/>
		<path fill="#FFFFFF" stroke="#000000" d="M451.932,110.631c1.477,0.828,2.635,1.992,3.475,3.492s1.26,3.246,1.26,5.238
			s-0.42,3.738-1.26,5.238s-1.998,2.664-3.475,3.492s-3.113,1.241-4.914,1.241c-2.473,0-4.416-0.78-5.832-2.34v9.036h-5.615v-26.353
			h5.363v2.231c1.393-1.68,3.42-2.52,6.084-2.52C448.818,109.389,450.455,109.803,451.932,110.631z M449.592,123.268
			c0.924-0.973,1.387-2.274,1.387-3.906c0-1.633-0.463-2.934-1.387-3.906c-0.924-0.972-2.105-1.458-3.547-1.458
			c-1.439,0-2.621,0.486-3.545,1.458c-0.924,0.973-1.387,2.273-1.387,3.906c0,1.632,0.463,2.934,1.387,3.906
			c0.924,0.972,2.105,1.457,3.545,1.457C447.486,124.725,448.668,124.239,449.592,123.268z"/>
		<path fill="#FFFFFF" stroke="#000000" d="M479.273,120.945h-14.652c0.264,1.199,0.889,2.148,1.873,2.844
			c0.982,0.696,2.207,1.044,3.672,1.044c1.008,0,1.9-0.149,2.682-0.45c0.779-0.299,1.506-0.773,2.178-1.422l2.988,3.24
			c-1.824,2.088-4.488,3.132-7.992,3.132c-2.184,0-4.115-0.426-5.795-1.278c-1.682-0.852-2.977-2.033-3.889-3.546
			c-0.912-1.512-1.369-3.228-1.369-5.147c0-1.896,0.451-3.605,1.352-5.131c0.898-1.523,2.135-2.711,3.707-3.563
			c1.572-0.852,3.33-1.278,5.273-1.278c1.896,0,3.613,0.408,5.148,1.225c1.537,0.816,2.742,1.986,3.619,3.51
			c0.875,1.523,1.313,3.294,1.313,5.311C479.381,119.506,479.346,120.01,479.273,120.945z M466.133,114.717
			c-0.863,0.721-1.391,1.704-1.584,2.952h9.541c-0.193-1.224-0.721-2.202-1.584-2.935c-0.865-0.731-1.92-1.098-3.168-1.098
			C468.064,113.637,466.998,113.997,466.133,114.717z"/>
		<path fill="#FFFFFF" stroke="#000000" d="M491.207,110.109c1.141-0.48,2.455-0.721,3.943-0.721v5.184
			c-0.625-0.047-1.045-0.071-1.262-0.071c-1.607,0-2.867,0.45-3.779,1.351c-0.912,0.899-1.367,2.25-1.367,4.049v9.145h-5.617
			v-19.368h5.365v2.556C489.162,111.297,490.066,110.59,491.207,110.109z"/>
		<path fill="#FFFFFF" stroke="#000000" d="M496.229,136.029c1.512-2.664,2.623-5.371,3.33-8.118
			c0.709-2.748,1.063-5.657,1.063-8.729s-0.354-5.982-1.063-8.73c-0.707-2.748-1.818-5.454-3.33-8.118h5.365
			c1.463,2.136,2.586,4.65,3.365,7.542c0.779,2.893,1.17,5.994,1.17,9.307c0,3.312-0.385,6.401-1.152,9.27
			c-0.768,2.867-1.895,5.394-3.383,7.578H496.229z"/>
	</g>
</g>
</svg>
